<?xml version="1.0" encoding="UTF-8" standalone="no"?>
<svg
   xmlns:dc="http://purl.org/dc/elements/1.1/"
   xmlns:cc="http://creativecommons.org/ns#"
   xmlns:rdf="http://www.w3.org/1999/02/22-rdf-syntax-ns#"
   xmlns:svg="http://www.w3.org/2000/svg"
   xmlns="http://www.w3.org/2000/svg"
   xmlns:sodipodi="http://sodipodi.sourceforge.net/DTD/sodipodi-0.dtd"
   xmlns:inkscape="http://www.inkscape.org/namespaces/inkscape"
   version="1.1"
   id="svg2"
   xml:space="preserve"
   width="3333.1201"
   height="3333.1201"
   viewBox="0 0 3333.1201 3333.1201"
   sodipodi:docname="Bird_Tucano_Line_Art.eps"><metadata
     id="metadata8"><rdf:RDF><cc:Work
         rdf:about=""><dc:format>image/svg+xml</dc:format><dc:type
           rdf:resource="http://purl.org/dc/dcmitype/StillImage" /></cc:Work></rdf:RDF></metadata><defs
     id="defs6" /><sodipodi:namedview
     pagecolor="#ffffff"
     bordercolor="#666666"
     borderopacity="1"
     objecttolerance="10"
     gridtolerance="10"
     guidetolerance="10"
     inkscape:pageopacity="0"
     inkscape:pageshadow="2"
     inkscape:window-width="640"
     inkscape:window-height="480"
     id="namedview4" /><g
     id="g10"
     inkscape:groupmode="layer"
     inkscape:label="ink_ext_XXXXXX"
     transform="matrix(1.3333333,0,0,-1.3333333,0,3333.12)"><g
       id="g12"
       transform="scale(0.1)"><path
         d="m 17903.1,18659.6 c -6.1,19.6 -13,39 -16.6,59 27.6,75.3 69.5,149.6 137.5,195.4 -60,-75 -105.1,-158.7 -120.9,-254.4 z m 135.5,16.2 c -40.4,57.2 25.7,111 56.5,155.2 -16.6,-52.4 -35.8,-104.2 -56.5,-155.2 z m 114.9,-132.3 c -4.6,58.4 10,115.4 33.8,168.3 -1.4,-57.7 -7.6,-116.1 -33.8,-168.3 z m 187.9,209.6 c 3.6,9.3 10.9,27.8 14.6,36.9 74.1,35.1 18,-112.6 -14.6,-36.9 z m 113.8,-456.1 c -50.4,67.5 -26.2,156.4 -27.2,234.2 11.7,-77.8 21.9,-155.7 27.2,-234.2 z m 4.1,326.3 c -36.7,0.7 -31.3,57.5 -8.7,73.7 46.5,27.6 42.7,-64.1 8.7,-73.7 z m 1207.6,-1682.4 c -89.1,141.4 -119.7,326.6 -264.7,426.9 -270,200.4 -582.2,332.2 -882.3,479.3 -132.9,68.9 -272.9,129.3 -387.8,226.9 -142.3,117.4 -280.3,256.8 -332.3,438.7 -50.6,147.8 -12.3,329.3 112,429.2 93,67.5 214.1,93.7 327.7,75.9 141.1,-23.9 275.7,-75.9 409.7,-125.2 -197.7,34.2 -397.4,120 -600.1,74.3 -125.9,-23.4 -219.2,-137.2 -233.5,-262.2 -16.2,-88.7 16.8,-175.3 49,-256.5 3.2,64.5 1.6,129.1 6.2,193.1 52.4,-106.5 88.2,-220 132.2,-329.9 -0.7,41 -2.5,82.7 -2.3,123.6 48.6,-14.6 51.6,-68.2 66.4,-108.8 14.4,-48.6 49.2,-87.1 78.4,-127.5 -4.3,43.1 -8.4,86.2 -12.1,129.1 108.3,-78.4 116.6,-234.6 225.8,-316.1 -17.3,61.4 -37,122 -51.3,183.8 85,-44.9 113.8,-142.5 175.3,-210.7 -4.3,34.7 -8.2,69.4 -11.8,103.8 80.5,-55.2 132.7,-138.2 194.9,-211.2 -1.3,18.7 -4.1,55.9 -5.4,74.6 114.7,-106.5 253.1,-180.6 386.5,-260.6 44.7,-37.4 77,-87.4 116.5,-130.2 -10.5,30.3 -21,60.4 -31.3,90.3 61.2,-28.3 116.6,-66.6 168.1,-110.2 0.9,47.9 -29.2,86.5 -44.9,129.1 96.2,-73 105.3,-212.8 195.2,-293.2 21.4,-22.6 44.2,-44.1 66.8,-66.2 -14.8,59.1 -20.8,120.2 -11.2,180.6 34.7,-82.5 47.4,-173.5 97.6,-249.7 -6.6,64.8 -12.3,129.5 -16.4,194.1 84.6,-142.1 70.9,-316.7 137.7,-465.9 39,286.2 -17.3,579 -120.2,846.5 -45.1,129.5 -120.4,244.8 -178.7,368.2 267.7,-348.6 393.1,-806 324,-1241.1 -4.6,-49.5 -66.1,-36.5 -83.7,-2.8 z m -415.2,48.2 c -6.4,40.8 43.5,116.9 -25.8,123.8 15.7,10.7 31.7,21.2 47.9,31.7 l -37.2,-9.8 c 21.5,51.7 -26.7,77.7 -67.7,74.8 16,-14 48.1,-41.8 64.1,-55.9 -20.5,-12.6 -41.3,-25.1 -61.6,-37.6 -0.7,-18.3 -2,-55 -2.7,-73.2 -24.7,13 -49.3,26 -73.2,39 -1.4,28 -2.8,55.8 -3.7,83.6 -29.4,13 -58.3,25.6 -87.5,37.7 -0.9,-22.4 -3.2,-67.3 -4.1,-89.9 -77.3,5.5 -55.9,82.1 -76.4,133.4 -30.1,20.5 -63.2,36.1 -95.1,52.5 -0.7,-42.2 -0.9,-84.6 -0.9,-127 -12.6,1.8 -38.1,5.7 -50.6,7.5 -3.7,50.8 4.7,105.3 -17.8,152.5 -28.1,18.5 -59.1,32.2 -88.5,47 -2.1,-54.5 -3.7,-109.2 -6.2,-163.9 -91.4,22.8 -56.7,127.2 -83.4,195.4 -27.6,26 -67.7,33.3 -100.4,49.5 -0.2,-54.5 0.5,-109 1.2,-163.5 -33.5,14.6 -67,29.1 -100.1,43.5 -3.4,52 -8.2,103.8 -13.5,155.5 -35.3,12.3 -70.9,24.4 -105.8,36.3 1.4,-46.5 3,-93.1 5,-139.8 -17.1,6.2 -51.5,18 -68.6,23.9 -5.2,45.9 -10.3,91.7 -15.5,137.3 -33.5,9.6 -66.6,18.9 -99.6,28.5 0,-39.7 0.2,-79.3 0.9,-119.5 -16.7,5.5 -50.2,16.2 -67.1,21.5 -2.7,39.4 -5.7,78.6 -8.6,117.6 -40.2,8.5 -80.1,16.7 -119.7,24.7 0.4,-33.8 0.9,-67.5 1.8,-101.5 -20.5,5.9 -40.8,11.8 -61.1,17.5 -4.4,34.2 -8.2,68.2 -12.6,102.2 -37.8,6.6 -75.7,13.2 -112.8,19.8 -0.7,-30.5 -1.2,-61.1 -1.2,-91.9 -27.6,5.3 -54.9,10.5 -82.1,15.6 -2.7,30.7 -5.2,61.3 -7.5,91.8 -42,7.8 -83.9,15.3 -125.2,22.6 -1.8,-32.1 -3.2,-64.5 -4.6,-96.9 -13.9,2.3 -41.9,7.1 -55.8,9.4 -1.6,31.6 -3.2,63.1 -4.6,94.6 -48.8,8 -97.3,15.5 -145.9,23 2,-36 4.1,-72.3 6.4,-108.5 -68.9,-2.1 -59.3,69.3 -71.4,116.7 -39.2,4.6 -78.4,9.4 -117.2,13.7 0,-34.7 0.2,-69.3 0.7,-104.4 -37.9,4.1 -75.5,8.2 -112.9,12 -3.9,34.9 -7.7,69.8 -11.2,104.5 -31.4,2.3 -62.4,4.5 -93.2,6.4 0.2,-34 0.7,-68 1.3,-102.2 -15.7,0.5 -46.7,1.4 -62.4,1.8 -1.2,37.4 -1.6,74.6 -2.1,111.8 -24.2,0.4 -72,1.6 -96.2,2.3 0.9,-34.7 2.3,-69.6 3.9,-104.5 -31.3,3.2 -62.1,6.2 -92.6,9.1 5,23.1 15,68.9 20,91.7 -27.5,11.4 -54.9,23 -80.4,37.9 l 56,20.7 c -15.5,33.1 -29.6,68 -55.4,94.4 -19.6,-76.6 -22.3,-156.2 -31.2,-234.6 -29.4,2 -58.8,3.9 -88,5.5 4.1,32.1 8.2,64.2 12.3,96.4 -20.8,1.8 -62.7,5.7 -83.7,7.5 -6.1,-31 -12.1,-62.2 -17.5,-93.5 -33.3,4.1 -66.2,8 -98.8,11.9 -1.1,48.8 -3.9,97.6 -9.8,145.7 -38.8,-36.3 -44,-91.4 -59.5,-139.3 -47.9,5.2 -95.5,10.5 -143,15.5 -2.9,48.5 -6.1,96.7 -10.9,144.8 -33.1,-37.2 -46.3,-85.5 -60.2,-132 -52.5,5.4 -104.7,11.6 -156.7,17.3 -0.2,39 -0.9,78.2 -1.8,117.2 -31,-30.3 -53.4,-67.5 -71.1,-106.5 -48.6,4.6 -97,9.4 -145.3,13.9 0.2,37 0.2,74.1 0,110.8 -43.1,-20 -57.5,-65.9 -75.2,-106.2 -28.8,3.4 -57.5,6.6 -85.8,9.8 -10,39.7 -20,79.3 -31.2,118.6 -19.4,-39 -30.8,-81 -38.8,-123.6 -92.1,28.7 -155.5,104.4 -233.5,156.8 17.3,-49.9 45.2,-95.5 77.3,-137.5 -61.8,7.1 -125.6,4.1 -185.4,21.9 -80.7,37.7 -146.8,101 -231,132.5 27.9,-49.7 66.2,-92.3 105.2,-133.6 -145.5,-16.7 -228.7,119.3 -338,188.8 5,-69.1 52.5,-120.6 92.2,-172.8 -127.1,-10.8 -231.7,82 -359,68.1 19.7,-18.7 39.3,-37.4 59.1,-56.3 -63.2,1.2 -119.5,28.1 -172.8,58.8 -52.5,32 -115.7,28.3 -174.3,33.3 30.6,-28.2 62.1,-56.1 93.3,-84.3 -66.3,-2.3 -122,30.5 -174.4,66.3 -57.5,41.1 -131.1,33.8 -197.3,41.5 33.1,-29.8 66.6,-59.3 99.9,-89.6 -78.4,-14.1 -126.1,53.6 -187.7,86.7 -57.7,34.8 -127,39.2 -192,48.3 15.8,12.8 31.5,25.3 47.7,37.4 l -38.3,-16 c -14.8,85.8 -112,121.3 -183.1,151.7 32.8,-59.3 78.4,-130.9 158.5,-115.4 5.4,-13 16.2,-39 21.6,-52 l -50.1,6.2 c 44.9,-43.8 88.9,-88.7 130.2,-136.2 -154.9,35.1 -239.7,185.9 -388.6,229 52.9,-80.5 122.9,-147.1 185.4,-220.1 -102.2,21.7 -174.2,101.9 -251.1,165.8 -85.5,70.5 -138.8,168.7 -192.9,263.1 -108.1,184 -204.1,374.5 -301.2,564.2 -53.6,100.5 -116.7,202.2 -217.3,261.7 319.9,-34.2 640.3,-68.1 956.6,-129.2 421.1,-68.7 841.1,-147.1 1256.4,-245.6 255.6,-45.4 496.9,-145.5 750.6,-199.6 193.9,-57.2 398.6,-29.8 595.9,-63.8 148.9,-32.4 298.5,-65.9 440.3,-123.4 289.1,-110.1 591.7,-175.5 887.7,-263.8 2.7,-38.1 1.1,-77.3 11.8,-114.5 18.5,-4.7 55,-14.3 73.5,-19.1 -8.9,28.3 -26.3,85 -35.1,113.3 52.9,-20 105.3,-41.9 157.1,-65.9 0.2,-16.2 0.9,-48.8 1.1,-65 18.9,-5.9 56.8,-18 75.7,-24.1 -3.4,15.2 -10.2,45.8 -13.7,60.8 60,-24.4 122.7,-41.9 182,-68.1 2,-12.8 5.7,-38.4 7.5,-51.1 6.2,12.1 18.3,35.8 24.2,47.9 56.5,-24.7 107.2,-59.5 158.9,-92.6 65.2,-13.9 133.2,-24.2 187,-67.5 52.7,3 102.8,-12.6 151.9,-30.1 7.9,-20.3 16.2,-40.8 24.8,-61.3 l -3.2,53.3 c 83.3,-17.8 151.9,-66.1 217.6,-117.6 219.8,-112.9 446.9,-210.1 672.2,-311.1 198.4,-121.5 384.4,-290 455.1,-518.7 -117.6,60.9 -245.1,99.4 -361.6,162.6 z m -6545.9,1448.6 c -58.2,127 -174.9,215.3 -229,344.5 -50.8,116.6 -92.1,237 -136.3,356.2 99.4,-165.1 186.7,-337 282,-504.4 76.9,-110.1 116.5,-241.2 195.2,-350.2 52.5,-74.8 121.1,-136.6 175.4,-210.3 -120.9,99.2 -219.6,223.3 -287.3,364.2 z m 132.7,-305.6 c -32.9,4.8 -76.6,37.2 -68.4,73.7 28.2,3.4 97.6,-47.9 68.4,-73.7 z m -290.3,174.7 c -115.6,115.2 -227.6,238.5 -299.6,386.3 -41.8,94.4 -75.3,192.7 -97.2,293.7 119.3,-157.8 180.2,-349.6 289.4,-513.5 97.8,-135.2 214.8,-255.9 345.4,-359.6 -91.8,47.6 -170.1,116 -238,193.1 z m -338.9,277.5 c -42.1,91.5 -76.8,186.5 -98.7,285.1 68,-121.4 122.5,-249.7 195.9,-368.1 67.7,-109.7 173.7,-188.1 247.8,-293 -133.8,104.4 -276.3,215.5 -345,376 z m 132.3,-509.4 c -114,69.5 -204.1,170.6 -292.3,269.1 -11.9,-38.8 -23.1,-77.8 -34.2,-116.8 70,-93.7 147.5,-182.2 240.1,-254.4 -17.6,-19 -34.9,-38.1 -52,-57.5 -73.2,69.5 -146.2,139.3 -214.1,213.9 -7.8,-34.5 -16.4,-68.9 -19.6,-104.2 35.3,-81.9 113.7,-134.8 160.5,-209.8 -0.7,-11.9 -1.8,-35.6 -2.5,-47.2 -69.1,49.5 -122.5,116.3 -182.7,175.3 -8.4,-39.6 -15.9,-80 -23.5,-120.1 47.7,-62.5 122,-111.3 139.4,-192.3 -58.2,37.7 -103.3,90.8 -150.8,140 -10.4,-44.4 -20,-89.1 -29.1,-133.8 34.6,-43.8 70,-87.6 108.7,-128.2 -3.6,-12.5 -10.5,-37.8 -13.9,-50.3 -48.6,15.5 -75.9,65.4 -112.6,98 -9.6,-49.9 -18.5,-100.1 -26.7,-150.3 35.6,-44.2 74.8,-87.5 92.1,-142.9 -37.2,25.5 -70.9,55.6 -105.1,84.3 -6.2,-40.6 -14.1,-81.1 -13.9,-122.6 20.1,-67.5 97.6,-123.4 63.4,-199.3 -29.2,34.6 -57.7,69.5 -86.2,104.4 -7.8,-44 -17.8,-88.3 -20.3,-133.2 31.7,-81.4 102.8,-145.2 111.7,-236 -47.2,46.5 -89.8,97.4 -132.7,147.6 -8.4,-32.2 -16.9,-64.3 -25.1,-96.7 65.9,-113.6 116.8,-235.8 155.8,-361 12.5,-215.5 -31.3,-430.7 -85.3,-638.5 -51.3,-197.7 -151.2,-380.1 -284.4,-534.5 -22.1,13.5 -44.2,27 -66.1,40.2 96.9,182.9 222.8,354.6 270.9,559.1 51.5,218.7 142.1,447.6 73.7,672.9 -62.1,-99 -62.7,-219.6 -95.6,-329 -96.2,-282.8 -145.5,-586.7 -312.4,-840.8 -28,16.5 -52,50.7 -88.2,38.1 -12.3,-37.4 26.7,-67.5 40.1,-100.1 -28.9,-28.7 -57.9,-57.2 -86.9,-85.7 -33.7,18.9 -58.8,84.1 -103.9,58.3 -12.4,-40.8 33,-70.6 46.5,-105.8 -27.4,-18.7 -54.8,-37.3 -81.9,-56 -39.9,32.6 -77.7,74.3 -133.4,75 18.3,-40.4 39.7,-79.6 63.9,-117.2 -29.9,-12.1 -59.8,-24.2 -89.4,-36.7 -49,34.8 -96.7,111.5 -164.4,66.1 22.5,-31.5 45.6,-63.2 68.8,-94.9 -30.1,-10.5 -60.2,-20.5 -90.3,-30.5 -30.8,31.7 -61.5,63.1 -91.6,95.3 -17.8,-2.5 -53.6,-7.5 -71.6,-9.8 21.2,-37.4 43.1,-74.4 64.7,-112 -68.1,10 -137.2,17.6 -205,1.6 28.3,-48.1 58.6,-94.8 86.9,-143 -73,15.8 -116.1,80.1 -165.5,129.3 -22.4,-1.6 -66.8,-4.3 -89.2,-5.9 22.6,-37.4 45.4,-75 66.6,-113.6 -79.8,2.8 -128.8,67.8 -188.6,109.7 -45.4,15.5 -94.4,14.6 -141.1,21.5 24.4,-32.9 48.5,-66.2 72.7,-99.7 -52,3.7 -89.8,34.7 -120.39,73.2 -43.55,62 -125.64,59.5 -191.09,80.3 14.14,-33.8 28.51,-67.8 41.5,-102.6 -61.79,30.5 -102.38,87.5 -155.97,128.6 -51.76,33.7 -111.5,52 -168.28,75 25.08,-57.9 55.41,-113.8 86.65,-169 -127.46,39.2 -128.6,222.1 -267.02,247.4 36.03,-80.9 83.46,-156.2 131.12,-230.7 -101.47,20.3 -150.5,122.9 -203.63,200.9 -49.93,95 -111.27,183.3 -183.56,262.9 l 63.16,-21.2 c -63.16,117.4 -72.73,261.3 -167.14,361.4 18.7,-125.2 44.24,-257 144.34,-344.8 l -54.27,7.1 c 44.24,-157.8 138.41,-291.9 229.62,-425.3 -59.51,31.3 -119.48,70.9 -144.79,136.4 -68.87,161.6 -193.6,295.3 -241.02,466.7 -51.99,183.6 -82.09,375.1 -71.38,566.2 14.82,243.3 42.64,486 77.08,727.2 63.61,259.9 188.12,499.8 264.96,755.9 106.72,324.7 277.05,627.8 499.15,887.7 116.97,136.6 150.5,317.4 230.3,474.3 51.31,102.8 91.21,210.9 144.16,313.1 87.1,156.2 212,288.7 350.9,400.2 83.4,70.9 203.8,99.4 256.1,203.6 116.3,206.8 234.6,424.6 430.7,567.5 274.3,202.8 607.9,306.3 936,382 l -14.3,35.6 c 18,-17.8 37.4,-34.2 57,-50.7 -28.1,1.6 -55.7,3 -83.2,3.9 125.1,-228.9 109.6,-502.1 81.6,-753.2 -14.6,-196.1 -38.3,-391.7 -75,-584.8 -22.8,-5.3 -45.4,-11.2 -67.8,-18.1 15.8,-5.4 46.8,-16.6 62.5,-22.3 -1.8,-40.4 -63.1,-36.5 -88.5,-59.5 23.1,-13 47,-24 72.3,-33.1 -23.5,-3.2 -70,-9.8 -93.2,-13.2 22.8,-14.4 46.5,-26.9 71.6,-37.6 -34.5,-78 -29,-167.9 36,-227.8 18.7,-232.8 13,-481.8 135.7,-689.8 70.4,-134.5 200.9,-219.6 321.3,-305.1 -28.8,-18.5 -52,-54.7 -87.6,-57.7 z m -211.2,-2939 c -27.8,-151.9 -82.5,-325.4 17.2,-463.6 -69.6,55.7 -147.8,128.4 -139.1,226 12.5,88.5 41.5,187.6 121.9,237.6 z m -90,-710.1 c -34.9,63 -11,138.9 22.8,196.8 5.9,-2.7 17.8,-8 23.7,-10.7 12.8,-83.5 25.5,-169.2 78.9,-238.3 -42.9,12.1 -100.8,7.5 -125.4,52.2 z m 185.4,496.4 c 5.2,-80.2 6.8,-160.7 7.9,-241.4 -27.8,44.4 -72.5,88 -67.7,144.3 2.3,41 34,69.1 59.8,97.1 z m 23.9,584.2 c 18,42.9 56.8,70.5 92.1,98.1 7.3,-119.1 -75.9,-223 -72.9,-343.6 -25.1,78.2 -58.9,166.6 -19.2,245.5 z m 203.2,-18.2 c -1.8,-89.2 -31.3,-173.8 -58.6,-257.4 -66.6,80.2 -44.5,219.5 58.6,257.4 z m 135.2,-332 c -4.3,-104.9 -43.6,-203.6 -56.3,-307.4 -72.3,97.4 -58.9,250.1 56.3,307.4 z m 52,-145 c -6.6,-56.8 -26.7,-110.6 -49.3,-162.8 6.2,55.8 -10.9,132 49.3,162.8 z m 104.9,-207.5 c 28,-42 -6,-90.8 -38.6,-118.8 -65.2,-45 -146.1,-17.1 -216.4,-3.9 86.7,38.1 148.9,143.9 255,122.7 z m 150.7,-257.5 c 15.5,-46 -30.6,-81.8 -61.6,-107.8 -67,-35.8 -145.9,-10.1 -215,5 85.7,46.7 169.9,131.8 276.6,102.8 z m 218.7,263.8 c 16.9,-54.7 27.3,-111.2 35.3,-168 -72.9,154.6 -186.5,292.5 -218.2,464.5 66.4,-94.9 150.5,-182.7 182.9,-296.5 z m -59.1,530.9 c 128.9,-119.5 198.9,-283.9 290.8,-430.5 50.6,-79.8 96.4,-162.6 146.6,-242.6 52.2,-83.5 124.2,-152.6 173.3,-238.3 60.6,-104.2 120.8,-209.4 194.9,-304.9 86.9,-112 113.6,-253.6 153.5,-386 20.1,-74.4 42.6,-151 36.7,-229 -16.2,-85.7 -71.6,-156.2 -116.7,-228.7 20,81.4 40.3,165.6 30.1,249.9 -46.1,112.2 -157.2,173.8 -242,252.9 99.2,-34.4 179.5,-103.5 256.8,-171.9 1.3,90 -73.9,146.6 -130.9,204.7 -119.5,109 -247,208.9 -375.3,307.4 148.4,-73.2 277.5,-178.5 412.9,-272.5 -35.3,102.2 -128.1,162.8 -207,229 -102.9,83.2 -218.3,148.9 -325,226.4 153.9,-47.2 290.1,-137.3 421,-228.9 -17.1,36.4 -30.6,76.3 -59.5,105.3 -142.3,133.2 -309.5,236.7 -450.2,371.5 128.4,-68.2 251.8,-145.5 371.5,-228.1 -68.4,165.3 -184.7,303.1 -282.5,451.1 -86.9,133.6 -235.4,228 -276.9,388.7 -18.4,56.4 -24.4,115.7 -22.1,174.5 z m 1093.9,-1978.6 c 12.3,-114.5 -106.5,-163.5 -190.4,-204.5 27.5,56.3 50.6,115.3 85.5,167.6 24.6,29.6 66.3,68.6 104.9,36.9 z m 176.2,-1447 c 29.9,-128.2 22.1,-260.4 0.9,-389.3 2.1,106.1 -8.4,211.4 -25.5,315.6 -27.6,151.6 -31.7,306.9 -69.8,456.7 -28.5,137.1 -83.2,268.7 -91.9,409.4 -6.1,80.9 -5.5,162.3 2.1,243 64.1,-124.2 71.6,-268.1 102.6,-402.9 23.7,-211.1 39,-423.7 81.6,-632.5 z m -202.2,-447 c -50.9,88 -83.5,186.3 -99.9,286.2 52,-84.8 87.5,-180.4 150.7,-258.1 57.2,-56.1 126.6,-97.8 189,-147.6 -85.2,24.2 -189.9,35.6 -239.8,119.5 z m 301,-717.3 c 28,-174.9 15,-353.2 35.5,-529.1 71.2,-596.7 -60.4,-1193.2 -215.7,-1766.2 -32.6,103 -9.6,211.1 -4.1,316.2 42.7,366 74.8,732.9 102.2,1100 10.9,-35.5 23.2,-70.9 34.4,-107.1 -8.2,-273.9 -19.2,-548 -51.5,-820.5 48.5,217.8 88,439 87.8,662.9 8.2,167.6 11.8,335.6 -8.5,502.6 -2.7,40.3 -7.5,80.2 -12.3,119.9 -20.1,174.2 16,348.2 32.2,521.3 z m -326.4,-639.4 c 46.6,-209.6 36.3,-426.4 45,-639.9 6.1,-220.2 -3.9,-440.7 1.6,-661 14.1,296.7 43.5,592.6 47.9,889.8 9.3,281.3 11.1,562.7 19.1,844.1 69.1,-594.9 63.2,-1196.9 10,-1792.7 -18.2,-80.5 -28.5,-162.8 -34.6,-245.2 -31.3,-155.5 -92.1,-302.5 -137.8,-454 76.4,683.4 80.3,1372.8 48.8,2058.9 z m -143.4,-2121.3 c -21,151.6 -24.8,305.5 -9.3,457.6 23.5,440.8 11.8,882.7 -23.5,1322.3 -14.8,228.5 -41.1,457.2 -27.4,686.4 84.6,-590.6 174.9,-1185.1 145.5,-1784.1 7.8,-231.2 -45.1,-456.3 -85.3,-682.2 z m -158.9,46.7 c -27.8,150.5 -57.7,301.9 -53.4,455.6 5.3,635.5 -107.6,1264.2 -124,1898.3 60.6,-373.9 112.6,-749.3 157.1,-1125.5 42.2,-407.7 41,-819.3 20.3,-1228.4 z m -172.4,200 c -31.7,220 -41.3,441.9 -52.2,663.5 -33.5,326.8 -73.2,652.9 -106.5,979.6 -26.2,374.7 -69.3,754.3 -7.5,1127.6 28.9,-99.4 23.2,-203.8 33.3,-306 26.2,-487.5 94.4,-971.6 122,-1458.9 29.4,-334.5 9.5,-670.6 10.9,-1005.8 z m -156,118.6 c -29.6,334 -80,665.6 -111.5,999.4 -26.2,236 -41.9,473.8 -97.6,705.3 -70.9,271.3 -59.7,554.5 -50.4,831.8 84.2,-306 69.6,-626.4 107.9,-939.2 37.2,-466.3 104.7,-929.2 156.4,-1393.9 17.1,-80.1 -17.3,-170.6 27.2,-242 -19.9,0.3 -38.8,16.2 -32,38.6 z m -474.7,5830.8 c -61.8,-19.4 -127.3,-3.7 -189.5,4.1 83.4,79.3 200.2,198.6 322.6,120.2 -40.3,-45 -76.3,-98.5 -133.1,-124.3 z m 271.8,-247.9 c -52.9,-25.7 -114,-23.9 -170.8,-32.8 37.2,60.4 60.7,138.9 128.1,173.3 45.9,26.9 100.4,27.8 152.1,30.8 -4.5,-71.2 -54,-130.9 -109.4,-171.3 z m 3.6,-363.2 c 98.1,61.8 141.4,209.8 273.4,208.4 -2.7,-145.3 -154.8,-191.3 -273.4,-208.4 z m 194.1,-341.4 c -48.1,-38.3 -87.3,-86.6 -114.9,-141.8 l -3.2,-5.2 c -53.4,-16.9 -107.4,-33.8 -163.3,-39.5 -67,-0.9 -140.2,-16 -203.2,11.9 -23.7,39 -36.2,83.4 -52,125.6 l -0.4,0.9 c 41.3,67.7 73.2,184.7 172.1,171.7 -15,-47 -30.5,-93.5 -45.1,-140.7 15.3,13 45.8,39 61.1,52 5.5,-15.9 16.4,-47.6 21.9,-63.6 33.1,29 65.9,57.9 99,86.9 -20.3,-51.8 -40.4,-103.8 -58,-156.7 51.1,70.9 89.7,149.8 138.2,222.3 7.3,1.9 21.7,5.1 29,6.7 -1.8,-17.8 -5.3,-53.2 -7.1,-70.7 70.9,55.6 142.1,112.8 226.9,146.4 -18.2,-74.8 -49.5,-147.8 -101,-206.2 z m 149.1,207.3 c 21.7,47.2 31,109.2 83.2,132.7 -12.3,-52.7 -47.6,-93.9 -83.2,-132.7 z m -396.5,-565 c 66.1,-130.2 55.8,-282.8 67.9,-424.6 -37.1,138.4 -81.8,279.3 -67.9,424.6 z m -149.8,-256.6 c -24.2,117.5 -73.9,229.9 -76.7,351.2 74.8,-91 78.5,-217.5 106.3,-327.9 34.4,-220.5 135.2,-423.9 169,-644.6 -73.9,204.5 -152.6,408.1 -198.6,621.3 z M 12691.6,10683 c 47,-239.9 131.8,-471.5 160.1,-715.1 48.8,-184.4 115.6,-364.1 172.4,-546.6 4.3,58.2 8.4,116.3 17.8,173.6 13,-22.8 27.1,-46.5 31.4,-73.7 44.5,-212.7 65.2,-430 70,-647.1 -116.9,253.3 -168.9,529.9 -255.1,794.2 -53.6,128.8 -81.2,265.9 -121.3,398.8 -49.5,207.5 -67.1,423.7 -149.6,622.3 -81.2,187 -150.3,383.1 -165.1,587.4 81.2,-197.2 196.8,-382.4 239.4,-593.8 z m -114.2,2410.7 c -84.6,124.5 -114.5,272.9 -127,420.2 67.9,-131.1 101.2,-275.6 127,-420.2 z m 423.6,543.2 -7.7,26.9 c 32.1,67.9 92.8,126.3 158.9,164.4 -54.5,-60.5 -105.8,-123.6 -151.2,-191.3 z m -128.8,-803.4 c -0.4,1.2 -1.1,3 -1.6,4.1 -37.8,86 -50.1,180.2 -52,273.4 112,-251.5 129.5,-532.6 234.9,-786.7 -120.6,145.3 -106.5,344.1 -181.3,509.2 z m -210,400.4 c 23,-51.5 46.7,-103.7 56.6,-160 2.9,-11.7 9.1,-34.9 12.3,-46.6 36.9,-151.1 71.6,-304.1 133.1,-447.8 20.8,-45.6 30.4,-94.9 34.5,-144.8 -54.5,125.2 -109.9,250.1 -139.6,384 -34.9,137.7 -91.2,272 -96.9,415.2 z m 6.8,-504.1 c -32.1,90.5 -74.3,180.8 -72.2,278.8 36,-89.3 62.2,-182.8 72.2,-278.8 z m 163.3,1049.6 -10,5.9 6.6,9.3 9.1,-5.2 z m 197.5,-2730.9 c -40.6,146.2 -100.1,288.3 -122.7,438.8 80.3,-133 101.7,-288 122.7,-438.8 z m -72.8,808.4 c -48.1,135 -57,278.9 -64.9,420.7 30.3,-145.9 76.3,-287.8 110.3,-432.6 -2.3,-207.7 110.6,-392.2 122.2,-597.9 -46,206.2 -126.7,402.3 -167.6,609.8 z m -3.4,1555.1 c -58.1,-25.5 -123.8,-22.1 -185.8,-23.9 -11.7,0.9 -35.4,2.7 -47,3.6 -25.3,12.8 -49.7,26.2 -74.6,38.6 -30.5,100.3 68.2,160.5 145.7,195.4 -12.7,-51.3 -38.5,-97.6 -64.9,-143.2 125.1,49.5 174.6,181.5 266.8,268.4 -52,-114.3 -124.1,-221.9 -228.1,-295.1 39.2,10.5 76.9,26.7 115.4,39.9 54.5,5.7 90.8,45.8 121.1,87.6 l 1.6,11.6 c 71.8,88 175.8,178.5 296.6,171.7 -57.2,-163.7 -198.8,-275.7 -346.8,-354.6 z m -365.3,540.2 c -17.5,-17.8 -35.3,-35.3 -52.7,-53.3 47.9,2.9 96,2.7 143.7,-2.6 29.6,24.4 59.3,48.8 88.3,73.9 66.8,44.5 137.7,87.1 218.4,99.9 -3.2,-43.1 -2.5,-88.2 -23.9,-127.5 -59.3,-65 -130,-127.2 -220.5,-139.5 -99.2,-13.9 -198.9,-25.8 -295.6,-52.9 6.4,12.7 19,38.1 25.3,50.8 -29.4,4.4 -58.3,8.7 -87.5,12.8 49.5,107.6 149.6,189.9 268.1,207 -15.9,-17.1 -47.6,-51.5 -63.6,-68.6 z m -218.4,-653.1 c -8.9,142.6 -55.9,278 -78,418 62.9,-129 81.6,-275.4 78,-418 z m 1340.8,-270.8 c -11.7,11.4 -23.1,22.3 -34.5,33.2 -5.4,-65.9 -29.4,-128.1 -67.5,-181.7 l 5.7,-3.2 c -97.8,-61.8 -219.6,-74.8 -327.4,-33.5 -24.4,18.5 -38.5,46.5 -56.8,69.5 16.7,40.9 41.5,83 93.7,70.7 -0.9,-18.2 -2.5,-54.7 -3.2,-72.9 58.4,50.8 109.3,109.2 153.3,172.6 -7.1,-36.1 -13.9,-72.5 -20.1,-109.2 14.8,20.5 30.1,40.8 44.5,61.5 27.6,36.7 49.5,77.3 66.8,119.7 9.8,-13 19.4,-26.2 29.2,-39.9 -8.5,-16.4 -25.3,-49 -33.8,-65.4 45.9,42.9 90.5,89.4 150.5,112.2 -1.4,-21 -3.9,-63.2 -5.2,-84.2 13,-2.2 39,-7 52,-9.5 -11.9,-9.9 -35.4,-29.9 -47.2,-39.9 z m 158.4,-956.8 c 34.5,-167.4 71.2,-334.8 97.9,-503.8 -51.8,163.8 -87.6,332.3 -97.9,503.8 z m 38.3,-818 c -106.4,88.5 -218.2,198.4 -231.4,344.1 73.4,-101.9 149.8,-202.7 241,-289.8 56.1,-52.2 134.1,-17.8 194.5,7.1 -52,-51.8 -130.9,-111.1 -204.1,-61.4 z m -386.9,43.8 c 61.8,-47.4 135.2,-76.6 204.3,-112.4 -87.1,18.7 -183.3,26.4 -255.2,83.9 -93.2,82.1 -131.8,210.5 -133.1,331.3 64,-98.9 98.7,-218 184,-302.8 z m -53.4,362.6 c -73.8,219.3 -142.9,444.4 -151.4,677 87.1,-216 123.2,-447.2 151.4,-677 z m 180.6,136.6 c -20,68.8 -38.5,140.2 -28.7,212.5 14.1,-70 21.4,-141.4 28.7,-212.5 z m 86.9,319.4 c -25.1,123.2 -81.6,247.9 -49.7,375.1 40.8,-120.8 43.1,-249 49.7,-375.1 z m 13.5,-88.7 c 40.1,-148.4 37.8,-303.2 57,-455.1 -41.3,147.7 -81.2,300.7 -57,455.1 z m -138.9,797.2 c 14.8,-8.7 26.9,-21 36,-36.7 10.3,15.7 21.5,30.8 33.5,44.9 30.4,15.1 62.7,26.9 90.6,46.5 19.1,13.9 38.3,27.8 57.4,41.7 l 37.7,26.7 c 11.1,-90.3 -31.1,-177.4 -82.8,-248.3 -55,-78.2 -157.6,-88 -233.1,-138.4 38.8,-153 37.7,-311.9 52.9,-468.1 -41.5,138.8 -70.4,281.8 -82.1,426.1 -1.1,12.1 -3.1,36.1 -4.3,48.2 -18,0 -53.8,0 -71.6,0 -10.9,47.8 -22.1,95.7 -30.5,143.8 21.9,35.6 59.2,55.2 94.8,74.1 -2.7,-27.8 -7.7,-83.6 -10.2,-111.7 50.4,39.5 83.4,94.9 111.7,151.2 z m 468.6,-2397 c -27.4,130.9 -48.1,263.6 -49.7,397.4 -135.2,-22.8 -271.6,54.3 -329.1,177 72.5,-45.6 139.1,-109.2 228.5,-118.1 83.5,-19.4 164.2,14.8 241,43.1 -39,-34.2 -80.5,-65.2 -123.8,-93.7 27.4,-133.7 28.5,-269.8 33.1,-405.7 z m -91.7,2616.4 c 43.8,45.8 76.9,115.3 147.3,121.7 -1.8,-79.6 -86.4,-100.3 -147.3,-121.7 z m 33.3,-214.2 c 5,-63.6 13.9,-127 29.6,-189.2 -4.3,-5 -13.4,-15.3 -18,-20.3 -7.7,14.8 -23,44.7 -30.7,59.5 -25.8,-73.9 5.7,-150.7 12.7,-225.3 11,-192.2 41.3,-381.7 67.5,-572.1 -62.2,237.4 -85.7,482 -134.5,721.9 -7.3,-6.6 -22.1,-19.8 -29.7,-26.4 21.5,-223 57,-444.9 73.5,-668.6 -31.7,137.3 -38.1,279.6 -78.2,415 -25.4,78.9 -35.4,161.5 -35.2,243.8 -26,-9.4 -52.2,-18.7 -77.7,-28.5 34.4,-122.7 54.9,-249.5 54,-377.4 -44.7,125.2 -67.9,255.4 -94.8,384.7 63.8,97.6 103.7,214.8 195.6,291.2 -21.4,-42.5 -46.3,-83.3 -68.4,-125.7 42.4,42 86,82.6 134.3,117.4 z m -1511.6,1442.5 c -16.8,-30.8 -32.1,-62.4 -47.2,-94.1 29.9,14.8 60.2,29.4 90.3,43.7 58.4,28.8 120.9,53.8 187.2,51.8 -69.3,-200.9 -320.8,-184 -446,-328.6 -21.6,153.5 44.9,335 198.6,392.4 -15.9,-34.8 -32.8,-69.5 -49.7,-103.9 16.7,9.5 50.2,28.9 66.8,38.7 z m -374.6,-83 c -4.1,-23.5 -12.3,-70.4 -16.2,-94.1 -56.6,77 -86.9,168.7 -104.4,261.7 65.4,-7.5 113.5,-68.2 114.9,-132.7 1.6,-8.6 4.3,-26 5.7,-34.9 z m 51.5,-151.8 c -16.2,88.9 -19.6,179.4 -4.3,268.6 81.4,-69.8 61.5,-190.4 4.3,-268.6 z m 26.2,499.6 c 21.9,-55.4 38.8,-112.7 52.3,-170.8 -33.8,28 -87.1,49 -89.2,99.4 -4.1,30.1 20.3,50.4 36.9,71.4 z m -905.7,643 c 26.2,28.5 52.2,56.8 78.5,84.8 19.3,-18 38.5,-36 57.9,-54.3 -26,-25.3 -52,-50.3 -78,-75.6 -19.6,15.2 -39,30.3 -58.4,45.1 z m 1768.6,-6506.7 c -62.5,285 -187,550.5 -280.9,825.2 -124.1,315.4 -215.8,642.1 -341.8,956.8 -48.2,132.7 -57.5,276.4 -113.8,406.8 -83.9,286 -251.8,537.7 -336.6,823.2 -61.6,215.5 -203.6,397 -270.2,610.6 -42.4,116.8 -65.5,240.8 -123.8,351.4 -55.4,107 -105.6,216.9 -147.6,330 -33.9,89.4 1.4,189.2 -39.2,276.8 -46.5,125.6 -46.3,260.9 -63.1,392 -12.6,92.1 -19,184.9 -18.7,277.7 39.2,-198.6 88,-395.2 120.6,-594.9 78.4,-189.7 111.5,-394 176.7,-588.3 62.7,-149.1 125.9,-298.3 186.5,-448.5 42.2,-105.4 60.5,-219.2 111.5,-321.3 85.1,-177.4 143,-366.9 235.4,-540.9 -37,106.5 -85.3,209.3 -104.3,321.1 -43.3,222.7 -101.4,442.8 -137.2,666.7 115.4,-184.9 161.9,-400.4 239.6,-601.8 105.2,-255.1 103.8,-538.8 201.4,-796.4 46.5,-158.5 136.3,-299.2 187.4,-455.9 130.4,-387.4 190.6,-795.1 327.2,-1180.2 112.2,-249.3 207.3,-507.6 264.3,-775.5 26,-92.8 43.6,-187.9 43.6,-284.9 -58.4,109.5 -92.8,229.2 -117,350.3 z m -491.6,96.7 c -17.1,56.1 -39.9,110.6 -75.7,157.5 1.8,-65.2 7,-130.4 4.7,-196.1 -50.3,68.9 -40.5,166.3 -106.4,226.9 5.4,-81.6 26.4,-162.1 25,-244.2 l -32.3,-26.2 c -7.1,17.6 -21.5,52.4 -28.8,70 -8.6,16.4 -17.3,32.4 -26.2,47.9 -8.9,-31.7 -17.5,-63.9 -26.2,-96.2 -24.2,39.6 -54.7,74.7 -96.2,96.2 20.5,-74.4 41.7,-148.9 52.2,-225.8 -14.2,-19.6 -27.8,-39.6 -41.5,-59.7 -21.9,45.6 -50.2,87.3 -88.3,120.6 15.5,-93.7 63.4,-187 37.2,-283.6 -16.6,-70.5 -16.6,-143.5 2.7,-213.9 -23.4,-10.5 -46.7,-20.8 -70.4,-30.4 2.7,9.8 7.7,29.2 10.2,39 -12.7,-3.8 -38.5,-11.6 -51.5,-15.7 0,68.4 0,137 -2.7,205 -99.4,-128.2 -91.9,-334.3 23.7,-450.4 76.8,-28.5 164.2,-17.5 245.3,-21.4 -37.4,-22.6 -73.4,-48.1 -104.2,-79.3 71.9,2.7 136.6,35.1 200.7,64.3 -24.6,-26 -49.9,-51.8 -75.9,-76.9 3.2,-9.6 9.8,-28.5 13,-37.8 -75.5,-32 -164.2,-42 -234.9,7.5 -78.7,57 -146.4,127.9 -223.9,186.3 -120,246 -70.7,531.7 6.1,783.3 -119.2,-136.2 -130.4,-326.8 -140.2,-499 -11.2,-106.7 35.3,-205 63.8,-305.1 -69.5,14.9 -119.2,74.1 -126.1,143.9 -4.1,92.1 18.7,183.1 19.2,275 3.6,91.2 -12.1,183.4 4.3,273.6 41.8,145.3 128.2,276.2 238.3,378.6 69.8,52 146.2,94.6 211.8,152.3 141.9,121.1 335.9,132.5 511.3,164.9 58.1,-12.8 128.8,-56.8 130.4,-124.1 23,-93.7 -18.7,-184 -29.9,-275.9 -0.2,-87.8 52.5,-164.4 64.1,-250.8 -89.4,50.4 -176.2,114 -282.7,119.7 z m -285.1,-815.4 c 8.5,-5.5 25.3,-16.2 33.8,-21.7 -58.4,-22.8 -120.6,-29.6 -176.5,3.4 17.5,42.9 35.6,85.5 54.3,127.7 18.4,-19.4 37.4,-38.1 52.9,-60.6 -14.6,-26.9 -29.9,-53.4 -46.1,-79.6 20.5,7.7 61.3,23 81.6,30.8 z m 179.5,-2462.3 c 26.9,-283.6 41.7,-568.6 30.1,-853.7 -2.3,-87.8 -57,-163.2 -62.9,-250.8 -5.5,-65.9 -20.3,-131.6 -60,-186.1 29.9,119.3 53.8,242 47.2,365.5 -15.1,182 3.9,364.2 10.5,545.9 9.1,126.6 9.1,254.7 35.1,379.2 z m 47.6,835.8 c 33.8,-151.9 24.7,-310.2 1,-463.2 -9.2,154.4 -0.7,308.8 -1,463.2 z m 109,-1902 c -17.3,275.2 -39.2,551.4 -21.4,827 7.8,154 -0.9,312.2 47,460.7 11.2,-198.4 34.9,-397 20.5,-595.9 -12.1,-182.4 -22.1,-365.5 -10.3,-548.4 6,-51 -11.1,-100.1 -35.8,-144.3 23.1,-30.1 46.1,-60.2 69.8,-90.5 54.5,204.7 3.7,415.4 7.8,623.2 3.6,258.5 -16.4,516.4 -10.7,775 8.6,341.4 -16,683.4 13.4,1024.1 -7.3,22.8 11.9,37.4 30.6,39.2 -27.9,-45.6 -13.3,-100.3 -13.3,-150.7 11.9,-221 41.8,-440.3 55,-661.1 13.4,-190.6 -4.8,-381.5 -3.9,-572.3 0.2,-168.3 -60.6,-332.5 -40.6,-501.4 13.5,-151.9 79.4,-298.3 59.5,-452.7 -6.8,-60.9 -62,-96.7 -102.1,-136.3 -163.5,94.4 -199.8,300.7 -178.6,473.3 25.1,191.8 13.7,385.2 27.9,577.2 44.7,-265.2 51.7,-536.6 11.8,-803.1 -16.6,-60 39.5,-102.6 73.4,-143 z m 255.2,-438.5 c 49.7,-78.7 27.4,-180.8 77.3,-257.9 -14.1,137.1 -23,275.2 -9.1,412.5 35.6,-126.8 49,-258.1 76.6,-386.7 10.9,25.7 16.2,53.6 12.8,80.9 -11,146.9 -25.3,293.7 -23.5,440.8 42.4,-136.1 73.6,-275.9 92.1,-417.5 0.2,-23.7 11.6,-40.4 33.8,-50.2 -23.3,218.2 -61.6,435.1 -76,654.2 77.8,-184.7 94.4,-386.7 140,-580.1 4.1,226 -65.6,446 -55.6,671.8 58.1,-101.3 76.4,-218 105.3,-330 -26.4,332.3 -129.9,658.8 -101.2,994.2 40.8,-202.2 78.2,-405.4 129.7,-605.4 49.3,-187 51.6,-381.5 55.2,-573.7 70.7,152.6 39.7,323.4 13.5,482.3 -68.4,293.2 -98.8,593.1 -140.7,890.4 -10.3,78.7 -31.5,156.7 -23.5,236.3 87.3,-180.6 112.6,-382.7 152.3,-577.4 26.5,-131.8 46.8,-264.7 71.6,-396.8 1.6,332.9 -65.7,660.6 -110.8,989.2 -73,399.7 -127,803.1 -141.4,1209.5 68.4,-248.1 104.5,-503.5 155.3,-755.5 53.4,-263.4 105.6,-527.2 141.8,-794 59.3,-341.1 40.2,-690.2 1.4,-1032.7 -36.7,-202.5 -121.8,-413.2 -293.9,-537.5 -106.5,-62.9 -239,-64.7 -340.9,-137.5 -42.4,-36.9 -98.8,-22.8 -148.9,-17.5 1.1,68.8 -13.2,146.6 31,205.4 11.9,-57.7 13.2,-116.3 13.2,-175.3 106.3,42.8 53.4,174.7 75.5,262 26,-61.1 36.7,-127 49.9,-192.2 67.3,77.9 14.9,194.7 37.2,288.4 z m 162.8,1470.5 c -8.2,109.9 -25.1,218.7 -28.3,328.9 39.5,-105.2 38.8,-218.5 28.3,-328.9 z m 54.3,774.9 c 9.8,-145.7 43.1,-289.6 38.7,-436.2 -51.3,273.1 -103.5,547.7 -118.3,825.9 32.2,-128.6 69.8,-256.8 79.6,-389.7 z m 448.3,-2634.2 c -51.6,-95.1 -124.5,-202.2 -243.1,-211.4 -132.3,-8.2 -266.1,9.6 -391.5,53.4 39.9,2.7 80.2,3.9 120.2,9.8 41.9,12.6 54.9,59.1 71.3,94.2 -4.3,-31.3 -8.6,-62.7 -13,-94.4 19.9,2 59.5,6.4 79.6,8.6 9.1,67.3 11.6,135 19.6,202.3 46.8,-70.7 5.7,-169 55.7,-233.9 18.9,103.2 22.3,208.6 44.2,311.4 30.3,-99.6 16.4,-204.1 20.3,-306.4 41.9,31 29.9,87.5 38.5,131.8 9.4,72.2 3.9,148.4 34.2,215.9 8.2,-36 14.6,-72.5 19.2,-109.7 -4.1,-69.1 -6.4,-139.1 8.9,-207.2 18.9,113.5 -7.5,235 45.1,341.8 17.6,-70.3 23.3,-143 25.1,-215.5 47,104.6 10,231.7 68.9,329 26.7,-103.5 50.8,-220.3 -3.2,-319.7 z m -1099.1,386.5 c 10.3,-125.8 26.7,-256.5 -13.9,-379.2 -34.9,122.5 -50.2,264.1 13.9,379.2 z m 60.7,-516.4 c -185.4,53.1 -373.8,99.8 -548.2,183.5 -53.8,36 -117.5,79.6 -123.6,149.8 -8.7,76.2 -16.2,152.1 -27.4,227.6 70.3,-104 74.8,-241.3 168.8,-330.9 18.9,103.3 22.1,215.7 86.6,303.5 -23,-108.7 -14.1,-221.6 -42.4,-329.7 11.4,-5.9 34.4,-17.8 46.1,-23.7 -8.5,72.5 0,145.5 22.5,214.3 22.6,-73.4 18.5,-150.9 10.5,-226.6 108.6,-47.9 230.3,-47.7 339.8,-93.1 49.7,-20 102.6,-29.4 156,-35.3 -29,-13.7 -53.9,-46.7 -88.7,-39.4 z m -719,828.8 c 39,179.3 19.4,363.5 28.5,545.2 12.1,365.3 17.1,730.9 11.8,1096.4 -0.2,191.3 -23,383.5 -2.7,574.4 76.6,-372.4 114,-754.8 82.1,-1134.5 -24.6,-269.5 -29.9,-540.1 -40.4,-810.4 -3.1,-131.1 -39.9,-257.6 -54.5,-387.6 18.3,-15 36.5,-30.8 55,-46.7 -25.1,5.7 -49.5,12.5 -73.4,20.3 -34.5,41.7 -12.3,96 -6.4,142.9 z m 214.3,-147.1 c -56.3,27.6 -115.8,73.5 -101.4,144.8 33.3,409.8 45.1,820.7 60.4,1231.6 11.2,244.9 -12.6,490.7 10,735.2 47.2,-295.3 78.5,-594 63.6,-893.4 -20.9,-350.1 -7.7,-704 -74.5,-1049.6 -18,-60.7 13.7,-117 41.9,-168.6 z m 238.1,738.2 c -5.9,-191.6 0.9,-385.9 -40.6,-574.2 -15,-60.4 9.6,-120.6 22.6,-179.5 -56.1,6.9 -119.7,14.6 -154.6,65 -65.5,78 -42,186.3 -37.9,278.9 24.4,273 32.4,546.8 60.2,819.5 18.3,183.1 34,366.5 39.5,550.5 26.2,-197.5 6.6,-396.6 9.6,-594.7 -1.9,-251.3 -6.9,-502.8 -27.2,-753.4 -1.8,-119 -35.8,-252.7 47.4,-353.9 12.8,11.9 25.4,23.7 38.1,35.1 -45.6,66.6 -39.2,150.5 -41.3,226.7 8.7,344.3 62.5,685.2 89.4,1028.1 13,-182.6 -8.4,-365.3 -5.2,-548.1 z m 51.8,1168.4 c 9.5,-161.3 8.2,-323.1 -2.6,-484.4 -35.5,159.7 -24.1,324.5 2.6,484.4 z m -6.2,-1879 c -47.7,87.6 -11.2,186.1 -13.5,279.1 -10.2,298.3 23.8,596.6 69.6,890.7 14.6,-99 13.2,-199.3 15.5,-299.4 2.3,-221.4 5.9,-447.8 -60.4,-661.7 -25.6,-67.1 -14.2,-138.9 -11.2,-208.7 z m 114.2,1300 c -42.4,249.7 -10.4,504.6 -12.3,756.4 50.6,-248.1 41.8,-506.2 12.3,-756.4 z m -728,1535.8 c 98.7,-81 177.6,-183.4 278.8,-262 118.4,-93.3 227.8,-197.3 330.7,-307.6 31.2,-41.5 83.7,-45.9 131.8,-50.2 -38.8,-18.5 -88.7,-54.7 -129.6,-20.1 -88.2,71.4 -161.6,160.3 -256.3,224.4 -150.9,104.7 -291.4,239.4 -355.4,415.5 z m -138.7,-2624.2 c -33.1,70.3 -45.1,148.5 -38.3,225.3 31.5,440.8 52.7,883.2 117.4,1321 27.4,152.5 28.5,308.5 59.3,460.4 -7.7,-374 -57,-745.2 -71.1,-1118.7 -16.4,-221 -15.5,-443.1 -37,-663.8 -7.9,-86.9 -2,-180.6 45.4,-256.3 47.9,-44.5 101.9,-82.3 145.5,-132 -89.4,25.3 -186.3,72 -221.2,164.1 z m 782.6,2307.7 c -77.3,94.6 -92.4,219.8 -124.3,333.6 35.8,-53.4 67.7,-109.7 90.3,-170.4 13.9,-53.6 25.1,-108.3 34,-163.2 z m 71.6,30.5 c -8.4,7.5 -25.1,22.4 -33.5,29.9 -20.8,47.2 -34.9,96.4 -50.2,145.2 -62.7,205.5 -184.5,396.1 -204.5,612.5 90.5,-171.2 183.5,-341.8 254,-522.6 34.2,-83.7 41,-175.1 34.2,-265 z m -833,924.7 c -26,116.3 -70.7,227.3 -95.1,344 175.4,-253.7 217.6,-568.6 352.3,-842 19.6,-37.7 48.4,-69.8 76.6,-101.7 -103.5,242.6 -186.7,494.3 -239.8,752.7 109.4,-275.3 198.4,-560.1 327.9,-826.9 -54.1,219.9 -138.4,431 -197.7,649 101.4,-192.9 174,-399 246,-604.3 -16.6,234.4 -100.8,454 -166.9,676.8 117.9,-155.5 192.2,-340.9 228.9,-531.7 25.3,-141.6 78,-278 83.7,-423 -95.8,69.5 -169.6,163.5 -263.8,234.6 -72.3,55.6 -147.8,112.7 -191.3,194.7 -82.8,147.8 -116.8,316.1 -160.8,477.8 z m -555.7,18.2 c -120.4,149.1 -195.6,327 -275.9,499.1 -32.6,76.4 -75.9,150.5 -83,234.7 117.7,-146.6 206.6,-313.5 297.6,-477.5 93.9,-186.3 217.3,-357.3 361.6,-508 -141.3,299.8 -337.4,570.5 -474,872.8 85.5,-113.3 153.4,-238.7 238.3,-352.5 105.1,-142.7 201.1,-292.3 277.5,-452.6 0.2,104.4 -49.7,197 -101.7,283.9 -93.1,178.1 -227.8,332.2 -308.1,516.9 119.7,-147.8 237.1,-298.5 340.2,-458.8 -22.8,105.6 -53.8,209.8 -101,306.9 -42.9,92.4 -108.1,172 -149.8,264.6 140.7,-125.7 259.5,-281 316.5,-462.7 83.7,-267.3 98.5,-550.2 184.2,-816.8 -184.7,172.6 -365,351.4 -522.4,550 z m 158,7406.3 c 20.6,14.1 41.3,28 62.1,41.7 16.8,-26.7 33.7,-53.6 50.6,-81 -44.9,-20.3 -78.7,16.2 -112.7,39.3 z m -1336.64,-5173 c -77.3,27.8 -154.37,56.1 -232.81,80.2 87.1,25.1 180.59,-5.2 232.81,-80.2 z m 810.84,5024.1 c 64.5,7.3 88,-58 117.5,-101.5 -42.9,29.6 -82.1,63.6 -117.5,101.5 z m 387.2,77.3 c 23.3,10.4 46.5,20.7 70,31 22.1,-28.1 42.4,-57.9 54.3,-92.4 -48.4,5 -88.3,30.8 -124.3,61.4 z m -198.8,-60 c 62.4,25.3 106,-19.8 143.6,-64.5 -57.9,-34.9 -102.1,33.2 -143.6,64.5 z m 31,-5103.4 c 65.6,-15.1 123.6,-50.7 174.4,-94.2 -148.9,72.7 -300.3,141.1 -463.8,173.3 101.9,0.9 192.2,-55.7 289.4,-79.1 z m -301.9,-1041.7 c -152.3,-20.7 -306.5,-21.6 -460,-23.7 -172.8,-4.5 -343.59,28.1 -515.98,31.5 -6.61,32.6 -12.99,64.7 -19.61,96.7 148.22,20 297.58,26.9 445.59,47.9 69.8,-3 138.4,-21 208.8,-19 -72.2,48.1 -155.9,78 -222.96,133.9 -40.13,30.3 -76.62,68.8 -125.87,83 -168.06,41 -336.11,85 -508.72,101.7 -5.25,8.7 -15.51,25.7 -20.53,34.4 141.83,7.8 279.79,-45.8 421.62,-25.5 -144.34,48.1 -292.1,86.4 -439.86,122.4 -54.5,15.1 -97.37,-31 -140.47,-56.1 31.93,-14.6 79.81,-15.2 85.74,-59.5 -23.03,-0.2 -68.86,-0.9 -91.89,-1.1 10.26,-17.6 20.75,-35.4 31.47,-53.6 -2.97,-9.1 -9.12,-27.4 -12.09,-36.5 44.69,-8.7 88.48,-20.7 131.8,-35.1 -29.64,-5.9 -88.93,-17.6 -118.34,-23.3 50.16,-17.3 99.64,-36.7 149.58,-54.9 -37.4,-7.3 -74.56,-14.6 -111.73,-21.7 126.55,-13.7 235.78,-101.5 261.54,-228.7 -81.4,-5.5 -175.35,21.9 -246.27,-29.4 -8.43,-47 12.32,-92.8 18.7,-139.3 -25.76,9.3 -51.3,18.7 -76.84,28 10.94,22.4 33.06,66.8 44.01,89.2 -67.04,-31.9 -98.74,22.1 -130.43,67.5 31.24,-20.3 112.41,-95.6 121.53,-22.4 -7.98,40.2 -55.18,59.5 -65.21,99.4 -24.85,107 -25.77,220.1 -70.23,322 -49.03,136.1 -134.31,274.8 -101.7,424.4 20.06,100.5 6.84,206.3 44.23,303.2 46.52,120.7 82.78,254.3 182.43,343.7 50.39,46.3 122.67,54.5 188.35,49.7 100.55,-7.5 205.67,-3.7 298.71,-48.6 190.4,-61.6 387.63,-111.9 588.73,-116 89.9,-3.2 186.1,-11.5 261.6,-65.7 68.2,-49.5 128.4,-109.2 193.3,-163.1 -89.1,21.2 -181,32.4 -267.9,62.3 -54.5,30.8 -104.7,68.6 -160.1,97.6 20.3,-30.3 40.6,-59.8 60.9,-90.5 -70.9,25.3 -134.3,65.4 -198.4,103.9 5.5,-15.2 16.2,-45.8 21.7,-61.1 -42.2,8.5 -84.6,15.3 -127,20.3 83,-56.5 190.4,-65 265.4,-135.2 -26.9,3.4 -80.5,10 -107.4,13.5 10.5,-23.5 21,-47 31.7,-70.7 -49.2,54.9 -105.6,106.2 -177.2,129.5 80.8,-100.8 129.5,-220.7 198.9,-328.6 -51.3,21.7 -106.3,38.1 -150.5,72.5 -55,67.1 -76,156.2 -138.9,217.8 13,-60 31.9,-118.6 44.5,-179 -59.32,83.4 -73.68,189.7 -138.44,269.7 -2.51,-28.5 -4.56,-57.4 -6.16,-86.6 -22.12,58.4 -55.18,112.2 -105.12,150.5 14.6,-44.7 30.78,-88.7 44.01,-134.3 -58.37,52.4 -91.9,127 -156.88,172.6 15.28,-42.2 31.92,-83.9 46.97,-126.6 -69.77,25.1 -92.8,112.2 -157.79,148.3 17.33,-55.7 39.45,-110 63.85,-163.1 -34.21,-9.3 -69.32,-16.6 -101.25,-32.6 -59.97,-74.8 -98.96,-164.2 -153.69,-243.1 -31.46,14.9 -62.93,29 -94.86,42 24.17,-63.9 81.41,-111.7 89.62,-182 -51.76,7.8 -103.07,16.7 -154.6,24.9 42.87,-47 101.93,-68 165.09,-54.5 -4.33,-17.3 -13,-52 -17.33,-69.6 -48.34,10.5 -96.23,21.2 -144.34,31.7 28.96,-28.9 58.37,-57.4 87.33,-87.3 -107.4,-3.7 -141.37,125 -168.74,207 -25.54,234.2 194.51,396.1 232.36,614.3 -53.13,2.5 -100.1,-14.1 -128.38,-60.6 6.16,-44.5 24.86,-94.6 -3.42,-135.7 -50.85,-106 -135.9,-195.6 -165.09,-311.9 -31.47,-131.1 28.28,-267.3 113.56,-365.1 44.23,-53.1 112.64,-15 166.46,-2.7 101.93,-48.8 217.99,-31.3 324.25,-63 107.4,-28.5 215.71,-52.2 323.29,-80 -92.07,61.6 -201.3,86.6 -299.58,135 -88.93,43.5 -188.12,57 -284.35,74.6 7.53,25.7 14.83,51 22.58,76.3 154.37,-28 308.29,-67 465.86,-73.8 -161.67,43.5 -310.57,123.6 -473.16,163 -5.92,17.6 -17.78,52.4 -23.71,69.8 116.06,-50.2 241.93,-65.9 362.56,-101.3 28.27,-9.3 58.6,-9.8 88.25,-8.9 -132.26,73.5 -271.35,133.4 -412.5,187 44.23,29.2 95.31,-7.7 142.06,-12.1 129.74,-20.9 254.24,-72.9 387.18,-73.8 -144.11,61.7 -301.67,96.4 -435.07,180.8 l -13.22,29.2 c 90.07,-26.9 179.91,-57 264.5,-99.2 172.62,-85.3 364.6,-118.8 542.5,-189.5 309,-164.9 645.5,-268.2 954.7,-432.6 170.8,-87.3 337,-187.9 521.7,-244.4 -26.2,-26.5 -51.9,-52.9 -77.9,-79.6 -139.1,63.8 -284.4,112.9 -426,171 52.9,-49.7 115.8,-87.3 172.4,-132.9 -141.2,46.3 -268.4,126.1 -410.2,169.9 -129.8,38.9 -248.8,106.7 -379.5,142.5 172.4,-125.2 378.6,-187 560.8,-294 -143.7,48.8 -290.3,94.7 -418.2,178.4 -170.4,90 -355.3,165.1 -548.7,182.2 156.7,-100.8 332.9,-163.5 506.9,-227.2 279.1,-137 547.7,-295 831.4,-423.6 -0.7,-10.5 -1.8,-31.5 -2.3,-42 -168.5,102.4 -361.2,150.5 -540.4,229 -217.3,90.9 -451.7,139.3 -659.4,252.8 -126.6,66.8 -265,109 -405.9,132.5 56.1,-60.9 139.1,-84.1 211.1,-120.8 392.2,-171.7 790.1,-330.9 1177.5,-513.3 65.9,-35.8 134.4,-72.1 211.7,-74.1 4.1,-17.4 8.2,-34.7 12.5,-52.5 -125.4,63.2 -246,136.8 -379,183.8 -228.5,75.3 -436.9,216 -681.5,237.6 -238.6,18.7 -475.9,-22.8 -712.4,-46 228.7,-33.6 460.8,-16.7 691.4,-23.8 z m -1149.5,324.5 c 186.07,-43.5 388.78,-29.6 560.94,-122 -148.67,3.7 -298.49,6.9 -444.19,-28.9 -45.84,44.7 -86.65,94.4 -116.75,150.9 z m 349.33,-723.7 c -158.47,65.6 -248.55,219.3 -372.36,329 29.87,-102.6 107.63,-177.9 170.33,-260.6 -100.33,68.8 -188.35,158.2 -240.11,269.5 62.25,5 124.96,6.8 187.44,5.5 4.56,-13.3 13.68,-39.7 18.24,-52.9 -4.56,-18.7 -8.89,-37.7 -13,-57 66.13,-94.7 152.1,-172 249.46,-233.5 z m -643.94,2905 c 88.93,-142.3 158.25,-296 222.32,-450.8 52.91,-123.6 125.87,-237.8 169.65,-365.5 -118.11,110.6 -172.84,267.2 -233.49,412.7 -46.52,137 -122,263.1 -158.48,403.6 z m -105.12,-168.3 c -104.89,185.4 -201.8,374.9 -303.05,562.1 -67.26,134.8 -120.39,275.9 -188.12,410.4 -67.04,129.3 -75.93,276.6 -109.68,415.7 -21.89,102.4 -49.48,203.4 -77.07,304.5 87.11,-128.4 137.04,-278.2 181.51,-425.8 44.92,-233 121.54,-459.2 217.99,-675.8 119.26,-231.3 289.82,-432.6 399.73,-669.3 89.61,-194.3 197.24,-381.5 259.49,-587.2 -185.38,183.6 -256.3,442.9 -380.8,665.4 z m -863.3,2094.7 c 22.8,243.5 -7.76,487.3 -10.27,730.6 20.07,198.3 10.95,399.5 50.17,595.6 49.03,273.1 143.66,535.6 259.04,787.1 46.52,100.8 90.29,206.1 167.82,287.8 -101.47,-261.6 -170.1,-534.8 -276.13,-794.7 -88.02,-245.4 -134.77,-503.7 -162.59,-762.5 -36.02,-173.5 2.97,-349.4 1.14,-524.2 1.14,-107.2 -9.57,-214.2 -29.18,-319.7 z m -182.88,1576.8 c 47.89,286.1 149.81,558.2 227.57,836.1 59.74,112 119.26,225.1 190.17,330.2 21.21,-162.3 -70.69,-307.6 -147.99,-442.1 -155.51,-213.2 -168.05,-486.9 -269.75,-724.2 z m 75.25,-1305.5 c -36.03,214.1 -73.2,430.5 -50.17,648.3 23.03,-130.7 12.54,-265 38.54,-395.6 16.64,-83 17.56,-168.1 11.63,-252.7 z m 15.27,2205 c 34.44,107.9 95.55,207.1 168.97,292.8 22.8,30.1 62.25,33.5 95.77,43.6 -83.45,-168.1 -156.19,-341.6 -254.7,-501.5 -93.04,-202.7 -124.28,-427.7 -143.89,-648 -33.29,279.8 82.09,543.6 133.85,813.1 z m -175.57,-938.3 c 7.06,-239 5.7,-478.4 21.66,-717.1 -46.06,235 -62.48,480.4 -21.66,717.1 z m -1.14,741.3 c 25.54,186.5 51.07,390.4 186.52,533.1 47.66,51.6 140.69,103.6 194.51,31.9 -142.75,-45.3 -186.07,-200.6 -243.99,-321.5 -126.33,-228 -138.41,-493.9 -186.07,-744.9 -3.19,168.7 27.59,334.9 49.03,501.4 z M 7758.98,15171 c -6.85,177.6 3.19,355.9 45.14,529.3 23.26,167.6 90.53,365.9 260.87,433.7 -78.22,-138.9 -131.57,-289.9 -208.42,-429.4 -84.37,-165.8 -65.21,-355.7 -97.59,-533.6 z m 1429.03,3124.6 c -73.65,-103 -127.47,-218.6 -203.4,-320.3 39.9,203.4 177.86,364.3 277.51,539.9 55.86,99.7 123.36,192.5 200.89,276.2 -39.91,-187.9 -157.34,-348.2 -275,-495.8 z m -94.86,-546.8 c -28.05,-86.6 -75.48,-165.3 -109,-249.9 13.69,91.2 41.05,184 109,249.9 z m -101.01,-26.4 c -7.53,52 -10.95,107.6 22.11,151.8 71.83,112.9 148.9,224.7 243.99,319.5 -23.71,-93 -78.67,-172.8 -131.57,-251.5 -48.8,-70.9 -86.65,-148.2 -134.53,-219.8 z m 91.21,815.2 c 92.12,233 251.74,429.8 384.45,639.8 54.5,95.6 120.62,183.6 188.8,269.8 71.83,88.7 123.59,195.2 215.94,266.1 -84.82,-129.5 -166.91,-260.9 -257.9,-385.8 -183.78,-266.6 -300.3,-572.4 -481.81,-840.3 -64.08,-97.6 -119.49,-200.7 -170.79,-305.6 5.92,128.6 75.02,239.5 121.31,356 z m 63.84,481.1 c 56.32,56.3 37.17,149.4 82.09,214.8 145.71,243.1 307.38,477.5 486.84,697.1 229.84,292.5 479.98,586.2 815.18,760.9 111.3,52.9 229.2,89.8 344.8,132.3 -217.8,-128 -426.2,-270.5 -634.2,-413.2 -188.3,-128.4 -344.28,-298.5 -481.32,-479.3 -206.36,-263.6 -383.77,-548.7 -563.22,-831 10.71,-13.9 21.43,-27.8 32.61,-41.9 23.25,41.3 48.34,81.4 76.61,119.2 150.95,199.6 276.37,418 445.56,603.4 177.64,217.1 395.86,395.2 581.66,604.3 117,101.9 251.3,192.4 400.2,239.4 -118.8,-143.9 -281.4,-240.3 -431.9,-346.6 -237.6,-185.4 -444.15,-410.5 -610.61,-661.5 -136.13,-199.5 -285.72,-390.4 -408.85,-598.6 -107.63,-173.3 -225.52,-344.5 -294.15,-538.1 -3.42,208.4 99.19,394.2 217.99,558 -14.82,-4.8 -44.47,-14.4 -59.29,-19.2 z m 513.52,1036.6 c 228.02,312.9 531.49,565.1 868.79,752.3 180.6,104.2 382.8,160.3 571.6,246.7 153.5,52.4 341.6,81.2 486.6,-8.4 -183.3,-14 -363.9,-48.4 -545.6,-74.2 -341.1,-66.1 -646.2,-253.5 -901.6,-483.6 -193.85,-155.5 -356.89,-345.5 -503.05,-545.7 -163.04,-202.2 -314.22,-415.9 -429.83,-649.1 62.71,297.1 275.68,526.9 453.09,762 z m 2636.19,932.2 c -62.9,-45.6 -133.4,-79.8 -193.4,-129.3 32.4,80.3 101.1,142.3 193.4,129.3 z m -78,-913.9 c 23.5,128.3 14.8,259 24,388.5 11.6,115.2 12.3,231 11.1,346.6 24.4,-113.8 22.4,-230.5 24.4,-346.1 4.8,-185 -45.1,-364.9 -65.4,-547.8 -25.8,-192.4 -17.1,-400.1 -128.8,-568.9 93.7,231.7 92.8,484.6 134.7,727.7 z m -51.5,646.2 c 47.2,-352.6 -24,-705.1 -65.2,-1054.4 -9.8,-80.5 -30.4,-159.9 -61.4,-234.9 44.7,220.5 75.3,443.8 96.5,667.7 -3.9,207.2 -13,417.3 30.1,621.6 z m 244.4,-1953.7 c 101.5,-196.1 235.1,-372.4 349.6,-560.5 -80.5,72.5 -123.4,174.6 -194.5,254.9 -50,58.1 -111.3,107.2 -150.3,174 -79.6,137.3 -132.5,288 -169.6,441.7 66.6,-96.9 104.9,-209.4 164.8,-310.1 z m -47.2,2015.5 c 24.4,-270.2 -1.6,-541.8 -48.3,-808.4 -39.7,-228.5 -61.1,-469.3 -180.4,-673.3 45.4,151.4 101.9,300.7 124.3,458.1 42.2,286.8 75.9,575.7 76.2,865.8 4.5,98.7 5,197.9 -12.6,295.5 18.9,-44 36,-89.4 40.8,-137.7 z m 1473.5,160.7 c 672,-96.7 1338.1,-249.2 1975.2,-486.4 89.8,-34.6 191.8,-20.2 279.3,-63.6 205.2,-105.3 433,-154.4 644,-246.5 246.7,-99.6 467.4,-251.2 708.9,-361.8 254.9,-109.3 474.3,-282.3 704.6,-433.5 156.9,-101 306.2,-212.5 456.3,-323.6 -201.2,82.8 -423,132 -640.6,102.9 -120.6,-19 -250.8,-70 -309.2,-185.2 -88.9,-180.6 -76.6,-399.7 8.9,-579.4 75.7,-177.4 222.1,-309.9 367.8,-430.3 -147.3,57 -289.1,127.2 -440.7,173.3 -185.2,86.9 -379,153.2 -577.4,203.2 -242.2,58.8 -481.6,129 -716.5,212.5 -101.2,35.1 -206.5,55.2 -310.5,80.3 -167.2,38 -340.2,13.9 -509.2,34.2 -301.7,55.6 -591.7,158.4 -887.5,237.1 -310.8,101 -635,157.8 -960.9,176.3 -212.5,24.4 -424.6,59.9 -630.7,117.9 -244.4,62.4 -498.9,80.5 -749.7,56.1 105.5,229.8 137.5,483.8 163.2,732.8 22.8,258.8 52,517.9 44.5,777.8 -2.5,102.4 -23.9,206.2 -82.3,291.9 488.9,25.8 978.7,-16.7 1462.5,-86 z m 4765.1,-2507.6 c 15.5,-88.9 31.9,-178.1 41,-268.1 l -27.1,27.1 c -0.5,0.7 -1.4,1.8 -1.8,2.5 -30.4,75.5 -19.4,159.6 -12.1,238.5 z m 83.2,-425.2 c -35.3,-3 -78.4,48.3 -60.4,82.5 39.2,12.1 71.3,-49.2 60.4,-82.5 z m 63.2,251 c 15,-63.8 25.5,-128.6 30.1,-194.3 -45.9,54.8 -34.2,128.7 -30.1,194.3 z m 81.4,-344.7 c -38.6,-15.3 -73.5,44.2 -59.1,76.6 34.4,10.5 76.2,-44.5 59.1,-76.6 z m 79.5,55.6 c -10.9,39.2 -15.7,79.6 -14.8,119.9 13.3,-38.5 19,-79.1 14.8,-119.9 z m 151.7,699.3 c -47.4,36.5 -96.5,70.7 -143.2,107.9 59.7,-17.3 102.8,-62.9 143.2,-107.9 z m 15.7,-806.7 c -47,42.4 -60.2,104.4 -58.4,165.3 22.4,-53.8 42.2,-109 58.4,-165.3 z m 8.7,-91.5 c 30.1,13.5 76.8,-31 65,-62.2 -32.9,-13.2 -79.8,28.5 -65,62.2 z m 266.8,588.1 c -54.1,51.3 -102.6,108.3 -136.4,174.9 65.2,-40.1 107,-105.6 136.4,-174.9 z m -5060.1,-14818 c 191.1,41.8 389.9,57.7 571.9,133.7 -107,-2.6 -215.5,5 -320.6,-19.2 -83.3,-18 -167.7,-32.6 -252.9,-35.3 62.2,16.1 125.2,28.2 188.3,41.2 -104,78 -249.9,20.1 -365.7,66.8 -105.6,54.5 -187,158.1 -208.7,275.7 54.3,-103 131.6,-210.4 251.5,-239.4 84,-5.7 169,3.6 252.7,-11.9 179.4,-31 362.1,-14.3 543.1,-22.1 9.4,101.3 13.5,203 31.5,302.8 28.5,-97.1 9.6,-199.9 34.4,-297.5 61.8,92.8 28.1,213.2 60.2,316.2 15.8,-89.4 -0.6,-184.2 33.8,-269.9 27.6,93.9 21.9,193.1 37.6,289.1 21,-78.7 26.2,-160.1 41.5,-239.9 44,81.6 -1.6,182.4 23.5,271.1 23.3,-65.4 34.2,-134 49.7,-202 56.3,85.7 8.4,193.1 36.5,287.5 12.5,-49.7 21.4,-100.7 36.2,-150.5 52.5,39.5 14.4,118.2 31.5,174.3 5.5,-15.3 16.7,-45.7 22.1,-60.9 19.2,27.6 38.6,54.7 58.9,81.2 11.6,-152.4 -45.6,-308.1 -158.1,-412.5 -105.1,-110.9 -216.3,-227.8 -367.8,-271.2 -122,-41.5 -256.3,-27.8 -374.6,-81.4 -117.4,-49.2 -248.3,-59.3 -371.9,-29.8 -121.8,5.9 -228,68.4 -338.9,111.2 177.2,-18.7 340,-119.7 521.1,-108.3 121.3,5.3 223.4,81 342.2,96.9 164.9,24.2 335,76.4 453.6,200.2 -275.9,-106.5 -563.5,-203.4 -862.6,-196.1 z m 300.7,272.3 c -24.8,52.7 -43.7,112.9 -8.2,165.3 23.7,-52.7 20.1,-109.7 8.2,-165.3 z m 101.3,-26.5 c -9.4,57.1 -35.8,121.8 2.3,173.8 23,-56.5 23,-117.9 -2.3,-173.8 z m 109.4,-26.2 c -26.2,77.5 -32.4,161.7 -5.4,239.7 20,-77.8 47.4,-163.7 5.4,-239.7 z m -514.2,589.2 c 86,10.5 180.2,-1.3 247.7,-60.4 95.3,-85.7 233.7,-80.5 353.4,-94.2 5,41.5 11.9,82.4 18.5,123.2 2,382.4 -65,765.2 -31.5,1147.6 66.4,-414.3 124.5,-835 91.4,-1255.5 9.6,9.6 28.5,28.5 38.1,38.1 -13.2,114.7 16,227.8 11.9,342.5 -2.8,99.9 5.9,199.5 15.7,298.7 39.2,-203.2 61.4,-409.1 86.7,-614.3 27.3,55.6 57.4,114.5 47.4,178.3 -16.4,159.9 -22.6,320.9 -51.8,478.9 -13.9,76.8 -21.6,154.6 -20.9,232.3 34.4,-128.4 81.8,-253.1 112.8,-382.4 18,-115.4 27.4,-232.3 34.5,-348.8 -16.9,-97.4 -80.5,-194.6 -176.8,-228.8 -79.5,-28.7 -158,-106.7 -247.4,-64 -117.6,53.6 -246,72.7 -366.9,116.9 -166.6,50.7 -353.9,13.3 -509.1,100.8 115.3,-7 230.7,-20.7 346.3,-8.9 z m 197.7,1507.1 c 16.2,-178.4 26.2,-358.7 -4.3,-536.1 16.2,179 -35.1,359.1 4.3,536.1 z m 42.9,-786.7 c 14.6,-83.5 26.9,-167.6 40.1,-251.8 19.2,-120.4 0.7,-242.4 0.5,-363.7 -43.3,202.1 -58.8,409.6 -40.6,615.5 z m 158.7,192.9 c 18,-162.8 -1.8,-326.6 6.2,-490 -3.9,-154.2 18.7,-309.2 -6.4,-462.9 -27.6,75.4 -39,155.2 -40.4,234.8 -2.9,239.7 -14.6,482.8 40.6,718.1 z m 68,-592.4 27.8,-1.6 c 4.1,286.1 -24,572.3 -11,858 21.5,-174.2 33.8,-349.8 38.1,-525.3 26.5,-237 -3.6,-475.5 -34,-710.3 -57.2,119 -36.5,253.3 -20.9,379.2 z m 4851.9,13490.4 c -67.3,156.4 -152.6,312.4 -288.5,420 -91.4,71.9 -129.3,188.1 -210.9,269.1 -101,102.4 -203.6,203.8 -315.4,294.8 -261.3,213.5 -507.3,454 -814.2,603.2 -340.9,154.6 -659,355.2 -1004.5,500.5 -446.2,187.9 -895.9,371.2 -1360.4,509.6 -98.3,25.5 -200,32.4 -299.2,52.9 -233,52.7 -466.3,105.4 -702.3,143.2 -552,80.5 -1106.1,174.7 -1666.2,161.9 -222,-5.9 -452.4,11.4 -666.5,-59.1 -83,-42.4 -178.3,-47.8 -261.1,-90 -149.8,157.5 -372.6,199.3 -578.7,228.5 -122.4,19.8 -247.4,4.7 -365.5,-30.1 -361.2,-103.1 -695.3,-285.1 -1001.5,-500.1 -354.58,-245.4 -630.72,-592 -831.84,-970.5 -100.1,-219.3 -193.36,-442.8 -259.95,-674.9 -89.61,-263.4 -158.25,-535.9 -173.52,-814.5 -13,-273.7 -21.44,-547.8 -9.81,-821.4 9.58,-221.2 -21.2,-442.4 -3.65,-663.3 -40.81,-177.2 -76.61,-355.7 -100.56,-536.1 -64.98,2.5 -130.2,0.5 -194.73,7.3 -77.76,14.1 -146.39,62.2 -226.43,64.8 -129.06,2.5 -251.28,-62.5 -338.16,-154.6 -166.46,-174.7 -259.26,-417.1 -256.3,-658.1 -7.75,-205.2 5.47,-410.7 29.42,-614.6 29.41,-251.2 -12.55,-510 60.2,-756.1 29.41,-168.7 79.8,-332.2 124.5,-497.3 54.95,-252.4 149.81,-494.6 187.89,-750.9 65.44,-208.4 191.08,-393.3 248.32,-605.2 98.73,-333.8 189.26,-676.1 372.36,-975.7 72.97,-130.2 163.27,-249 249.24,-370.3 98.96,-140.2 151.4,-306 243.53,-450.4 -163.04,-113.1 -206.14,-317.1 -271.58,-491.8 -167.83,54.3 -345.92,62.5 -516.71,104.7 -179.22,34.2 -345.68,112.8 -522.4,156.4 -224.15,63.1 -455.83,91.9 -682.48,145.2 -459.93,101 -898.19,278.9 -1354.24,394.7 -196.33,54.8 -393.35,112.9 -575.31,206.4 -173.3,82.6 -342.72,186.5 -535.4,215 157.56,-92.3 315.81,-183.1 472.01,-277.9 191.08,-117.9 407.93,-182.2 622.05,-243.1 456.28,-118.6 895.45,-297.1 1356.75,-397.7 223.69,-52.2 452.86,-80.7 674.27,-143.9 170.11,-43.3 331.09,-117.4 503.25,-154.1 182.65,-48.6 373.05,-63.4 552.28,-125.4 0.46,-83.7 -7.98,-167.2 -15.05,-250.6 -135.45,42.6 -249.46,131.8 -382.63,179 -283.2,75 -575.76,103.3 -866.26,134.1 97.59,-72.6 218.44,-93.8 335.65,-112.9 154.6,-24.6 302.13,-78.2 453.54,-117.4 159.62,-41.1 304.19,-135 471.78,-144.4 12.55,-37.2 25.31,-73.9 38.31,-111.5 -165.54,43.1 -325.84,105.1 -493.9,138.9 -226.2,46.3 -451.72,97.1 -674.27,159.6 -253.56,73.9 -500.74,169 -753.17,246.3 -249.46,82.1 -503.7,147.5 -752.48,231.2 -195.42,41.3 -383.99,114.4 -583.52,136.8 122.45,-46.1 251.52,-71.1 374.42,-116.3 181.74,-61.8 352.53,-153.9 541.1,-196.3 267.48,-62.3 527.88,-151.7 780.54,-259.3 360.05,-151.9 742.9,-235.5 1123.48,-317.9 158.24,-31.4 306.01,-119.2 470.87,-113.5 8.66,-17.6 26.45,-52.5 35.11,-69.8 -405.88,65 -794.44,206.4 -1184.59,331.1 -482.95,141.4 -971.61,263.1 -1449.78,419.8 -281.16,80.9 -562.54,160.8 -838.68,257.7 -198.38,54.7 -376.47,159.6 -559.8,249.9 50.62,-52.2 108.31,-96.7 163.26,-144.1 -170.1,30.3 -337.47,77.7 -510.32,91.4 70.24,-70.7 169.88,-97.4 259.73,-133.8 210.92,-68.2 428.68,-112.7 638.47,-184.3 297.11,-102.1 604.26,-171.2 904.34,-264 446.48,-148.5 900.7,-272.5 1351.74,-406.2 221.41,-70.4 440.08,-149.5 662.18,-217.7 166.69,-44.7 328.59,-111.1 501.43,-129.8 35.11,-4.3 69.09,1.4 101.7,16.9 15.05,-103.7 -23.03,-206.8 5.24,-310.6 -39.22,89.9 -37.85,189.5 -55.41,284.4 -109.45,-119.3 -58.37,-381 113.33,-412.5 27.82,-83.5 115.15,-136.1 199.52,-96.7 77.08,-82.3 160.31,-164.6 266.79,-207 106.72,-40.9 240.11,-31.5 326.99,47.8 -136.36,69.1 -296.66,147.8 -334.74,311.5 191.54,5 380.35,-26.9 570.78,-41.7 31.4,-117.4 120.4,-203.6 181,-305.6 112.7,-195.6 242.6,-380.3 367.4,-568.2 97.6,-153 184.4,-312.8 292.1,-459.2 161.9,-204.6 372.8,-364.4 599.9,-490.3 14.1,-543.4 -101.7,-1078.3 -141.8,-1618.5 -20.3,-241.5 -71.6,-482.7 -55.4,-726 24.4,-154.2 106.5,-329.5 271.5,-370.8 47.2,-100.8 86.9,-205.2 114.5,-313.6 29.9,-120.1 112,-221.6 211.6,-292.5 106.7,-79.8 251.8,-50.4 366.5,-112.9 111.7,-57.7 239.2,-116.7 367.5,-80.2 68,25.3 65.2,107.8 67.5,167.6 87.6,-170.8 298.3,-207.8 469.3,-242 160.5,-41.7 305.8,60.9 456,98.3 159.9,-10.3 319.7,-27.1 480.7,-25.5 86,4.7 167.9,-25.1 252.2,-35.2 85.8,-6.8 132.5,88.7 215.3,95.6 165.8,19.8 337.9,48.6 481.3,139.8 154.9,103 277.1,252.6 346,425.5 43.7,-78.9 77.9,-162.6 114.4,-245.2 -5.9,216.9 6,441.9 -72.3,648.5 -84.3,242.2 -175.8,482.1 -282.5,715.4 -156.4,339.3 -373,645.3 -567.8,962.7 -159.8,222.3 -310.8,460.1 -531.9,627.5 -154.7,165.8 -318.6,322.9 -486.4,475.2 -159.9,139.3 -341.2,250.8 -509.4,379 -85.8,65 -161.5,142.3 -251.3,201.8 -147.1,94.2 -273.9,226.4 -447.4,273.2 65.4,-88.3 176,-127.1 246.3,-211.7 -53.6,16.7 -105.4,38.4 -156,61.8 -54.3,68.7 -137.7,106.5 -187.7,178.8 -49.7,56.8 -78.2,127.7 -87.5,202 84.3,-49.9 166.4,-104.6 258.3,-140.6 -68.8,86.4 -153.9,157.3 -239.9,225.7 6.9,32.4 13.9,64.5 21.2,96.5 135,-68.9 253.1,-166 384.3,-242 -98.1,125.9 -217.6,233.5 -342.1,332.5 19.4,28 39,56.1 58.9,83.4 97.8,-96.4 219.5,-161.6 330.1,-241.4 252.7,-156.5 489.8,-336.4 748.6,-483.2 -93.7,91 -209.7,153.7 -311.7,234.6 -229.4,183.1 -464.5,358.9 -693.2,542.7 16.2,33.3 63.2,34.9 92.8,52.7 101.5,-52.7 169.5,-178.1 297.6,-166.5 391.5,-290.5 750.7,-620.7 1131.5,-924.4 187.2,-137.3 367.6,-283.9 534,-446 127.5,-107.6 227.8,-243.3 357.3,-348.9 85.3,-73.9 184,-135.4 248.8,-230.1 94.4,-134 150,-290 227.6,-433.7 183.1,-348.8 354.8,-704.3 493.4,-1073.5 135.2,-377.8 266.8,-760.7 468.2,-1109.6 82.7,-153.9 198.1,-286.8 293,-433.2 -46.3,198.4 -59.5,408.6 -156.5,591.5 -218.2,453.1 -385.3,928.5 -599.7,1383.2 -158.7,356.8 -360,692 -528.1,1044.1 -111.7,239 -363.7,347.7 -546.8,520.4 -1.6,118.5 -47.9,228.9 -70.9,343.6 -65.2,319.5 -188.3,627.1 -215.5,953.8 -1.8,169.9 32.2,337 57.9,504.2 75.3,435.3 60.2,879.5 42.5,1318.9 -4.4,183.1 -47,364.1 -31.7,547.5 2.7,213.4 -29.9,425 -36.5,638 -18.9,281.8 -17.3,564.6 -44.9,845.7 -19,244.9 -66.4,485.9 -108.8,727.2 -59.8,325.4 -133.2,650.8 -266.6,955.2 -98.7,249.9 -257.4,468.4 -396.7,696.2 -130.9,215.4 -307.6,398.6 -437.2,614.9 -136.3,221.2 -283.4,438.1 -473.8,616.6 -242.4,227.1 -461.1,507.8 -788.5,614.3 -9.1,149.2 -9.6,298.5 -8.7,447.6 3.2,256.3 78.2,506.7 189.1,736.1 63.6,140 151.8,268.4 259.2,378.3 19.4,16 34.9,43.1 62,45.8 82.1,-38.5 156.9,-93.9 246.5,-116 189.3,-44.7 382,-87.1 578.1,-76.9 160.1,-16.4 318.3,-48.8 478.8,-63.4 593.1,-61.1 1190.3,-71.1 1782.1,-144.1 204.3,-27.3 405.8,-72.7 610.8,-95.7 289.2,-40 579.9,-62.3 870.4,-90.3 242.9,-32.4 490.9,-40 727,-111.1 322.8,-92.3 626.8,-239.9 949.5,-332.9 121,-30.6 247.6,-53.6 354.1,-123.4 93.9,-62.2 196.8,-108.5 299.8,-153.4 76.9,-31.5 142.3,-93.8 228.7,-98.8 8.2,-6.4 24.9,-18.9 33.3,-25.3 106.1,107.4 106.5,268.4 117.7,409.1 -0.9,380.6 -51.8,767.3 -202.7,1119.6"
         style="fill:#191919;fill-opacity:1;fill-rule:nonzero;stroke:none"
         id="path14" /><path
         d="m 11774.3,19794 -3,-4.6 -5,-3.6 c 1.8,2 5.9,6.1 8,8.2 z m -254.7,319.7 c 16.2,34.6 55.6,47.4 84.8,68.4 29,-59.3 122,-119.5 78.4,-189.5 -68.4,-70.2 -218.2,31.7 -163.2,121.1 z m 33.9,-492.5 c -55.1,35.3 -50.3,106.2 -67.9,161.4 -22.8,-39.5 -31.2,-84.6 -42.6,-128.6 -18.1,55.6 -21,114.2 -23.1,171.9 -7.3,-19.8 -21.9,-59.7 -29.2,-79.6 -7.9,45.6 -16.8,91 -25.3,136.2 -10.9,-20.1 -21.6,-40.6 -32.6,-60.9 -7.1,-13 -21.4,-39 -28.5,-52 -5.7,58.4 9.4,115.1 27.8,169.6 -15.7,-13.2 -47.2,-39.4 -62.7,-52.6 -0.4,155.3 30.1,332.2 149.4,442.3 123.1,73.5 301.9,83.3 411.8,-20.9 100.1,-93.8 108.5,-243.8 107.6,-372.4 -1.6,-97.4 -57.9,-179.7 -114.7,-254 -7.7,14.3 -23.2,43.3 -31,57.7 33.1,39.2 64.3,80 94,122 -17.6,-2.3 -53.2,-6.7 -71,-8.7 16,26.7 32,53.8 42,83.2 18.5,73 56.3,154.9 15.3,227.1 -19.2,45.6 -58.9,77.6 -95.8,108.4 22.4,-50.4 49.3,-98.6 77.8,-145.8 -21.9,10.5 -43.6,20.8 -65.2,31.1 -18.1,33 -33.1,67.4 -48.4,101.4 -10.7,-4.3 -32.4,-13 -43.1,-17.3 -58.4,13.7 -117.6,21.9 -177.6,23.2 -14.2,1.4 -42.7,3.9 -56.8,5.3 -42.6,-29.2 -80.7,-64.5 -114.2,-103.8 6.3,-53.8 10.7,-107.8 18,-161.6 12.7,-53.8 52.2,-95.3 82.5,-140.3 5.7,-14.3 12.1,-28.7 19.4,-42.8 58.2,-9.6 118.3,-6.4 177.2,-2.5 70.4,3.2 119.5,58.8 169.6,101 -23.2,-35.8 -46.5,-71.8 -68.6,-108.6 -53.6,-15 -107.6,-28.5 -161.2,-43.3 43.5,-5.2 87.3,-11.8 131.6,-15.7 -30.4,-23.7 -61.2,-47.2 -91,-71.4 52.2,12.3 104.4,25.3 157.1,36.5 -60.2,-33.3 -123.2,-60.4 -186.3,-87.3 -9.8,29.6 -19.6,59.5 -29.4,88.9 -4.6,-32.4 -9.6,-64.8 -14.9,-97.1 z m 362.8,93 c 101.5,136.3 96.3,322 52.9,478.4 -57.9,191.8 -285,303.9 -473.3,237.3 -103.8,-54.9 -208,-132.9 -251.1,-246.4 -54,-129.3 -81.6,-284.4 -15.7,-414.6 122.2,-249.7 528.3,-285 687.2,-54.7"
         style="fill:#191919;fill-opacity:1;fill-rule:nonzero;stroke:none"
         id="path16" /><path
         d="m 10760,19847.4 c -13.4,-31.5 31.9,-74.4 63,-60.2 14.1,31.6 -31.5,78.6 -63,60.2"
         style="fill:#191919;fill-opacity:1;fill-rule:nonzero;stroke:none"
         id="path18" /><path
         d="m 10985.3,19718.7 c -36.7,20.6 -73,41.5 -110.6,59.6 19.4,-45.2 66.8,-53.6 110.6,-59.6"
         style="fill:#191919;fill-opacity:1;fill-rule:nonzero;stroke:none"
         id="path20" /><path
         d="m 11314.3,19584 c -14.5,-29.4 20.6,-83.2 54.5,-69.6 16.2,30.1 -21.4,80.5 -54.5,69.6"
         style="fill:#191919;fill-opacity:1;fill-rule:nonzero;stroke:none"
         id="path22" /><path
         d="m 11426.1,19525.2 c -14.6,-32.4 31,-74.4 62.7,-58.7 18.5,31.3 -33.3,74.2 -62.7,58.7"
         style="fill:#191919;fill-opacity:1;fill-rule:nonzero;stroke:none"
         id="path24" /><path
         d="m 11568.6,19439.9 c 18.9,28.2 -26.2,68.8 -50.4,43.1 -20.1,-28.1 26,-70.5 50.4,-43.1"
         style="fill:#191919;fill-opacity:1;fill-rule:nonzero;stroke:none"
         id="path26" /><path
         d="m 11778.6,19453.6 c 8.4,-35.4 75.9,-36.1 80.5,2 -10.5,33.1 -73.7,33.5 -80.5,-2"
         style="fill:#191919;fill-opacity:1;fill-rule:nonzero;stroke:none"
         id="path28" /><path
         d="m 11730.3,19391.8 c -26,49.7 -87.6,49.4 -135,62 27.3,-49.7 83.4,-58.2 135,-62"
         style="fill:#191919;fill-opacity:1;fill-rule:nonzero;stroke:none"
         id="path30" /><path
         d="m 12948.1,18700.6 c -32.6,136.4 -104.6,260.2 -181.7,375.8 40.1,-133.6 105.4,-259.5 181.7,-375.8"
         style="fill:#191919;fill-opacity:1;fill-rule:nonzero;stroke:none"
         id="path32" /><path
         d="m 11899.9,18579.3 c 38.8,133.4 -39.2,264.7 -16.2,400.6 -41.9,-85.9 -1.1,-180.3 -22.3,-270.2 -2.1,-58.3 -24.2,-165.1 61.5,-170.1 -41.9,-101.7 14,-197.2 69.6,-279.3 13.9,34.4 27.6,68.9 41,103.3 -29.2,49.2 -54.9,100.1 -77,152.5 -12.8,25.6 -21.9,60 -56.6,63.2"
         style="fill:#191919;fill-opacity:1;fill-rule:nonzero;stroke:none"
         id="path34" /><path
         d="m 13047.3,18882.8 c 50,-124 99.5,-249.9 172.9,-362.8 -39.5,124.5 -98.3,241.7 -149.8,361.2 -5.7,0.5 -17.4,1.4 -23.1,1.6"
         style="fill:#191919;fill-opacity:1;fill-rule:nonzero;stroke:none"
         id="path36" /><path
         d="m 13359,18784.5 c 77.6,-129.9 118.2,-279.1 204.4,-403.6 -32.2,146.6 -90.8,300.8 -204.4,403.6"
         style="fill:#191919;fill-opacity:1;fill-rule:nonzero;stroke:none"
         id="path38" /><path
         d="m 13728.2,18644.5 c 51.3,-136.1 68.7,-296.2 177,-402.4 -51.6,136.8 -91.5,282.2 -177,402.4"
         style="fill:#191919;fill-opacity:1;fill-rule:nonzero;stroke:none"
         id="path40" /><path
         d="m 12973.5,18529.8 c 9.8,-79.3 36.9,-178.5 124,-203.4 -36.5,70.7 -78.2,138.7 -124,203.4"
         style="fill:#191919;fill-opacity:1;fill-rule:nonzero;stroke:none"
         id="path42" /><path
         d="m 14266.1,18107.3 c -61.5,100.8 -134.7,195.4 -175.5,307.4 -1.6,-122.5 64.9,-249.9 175.5,-307.4"
         style="fill:#191919;fill-opacity:1;fill-rule:nonzero;stroke:none"
         id="path44" /><path
         d="m 13231.4,18335.1 c -16.9,-28.1 16.4,-86.7 50.8,-67.3 16,28.5 -18.2,82.3 -50.8,67.3"
         style="fill:#191919;fill-opacity:1;fill-rule:nonzero;stroke:none"
         id="path46" /><path
         d="m 14416.6,18337.1 c 34.7,-72.9 60.9,-155 128.4,-205.6 -24.2,72 -62.5,137.9 -105.6,199.9 -5.7,1.6 -17.1,4.4 -22.8,5.7"
         style="fill:#191919;fill-opacity:1;fill-rule:nonzero;stroke:none"
         id="path48" /><path
         d="m 11863.7,18203.7 c 13.2,-51.3 43.5,-96 69.7,-141.6 11.9,32.4 29,63.9 31.3,98.8 -20.8,56.1 -54.1,106.5 -80.5,159.6 -8.2,-38.8 -17.6,-77.3 -20.5,-116.8"
         style="fill:#191919;fill-opacity:1;fill-rule:nonzero;stroke:none"
         id="path50" /><path
         d="m 11774,18085.9 c 22.4,74.5 -5,145.2 -42.8,208.8 -15.1,-70 -21.7,-161 42.8,-208.8"
         style="fill:#191919;fill-opacity:1;fill-rule:nonzero;stroke:none"
         id="path52" /><path
         d="m 14769.4,18134.7 c -26.9,48.5 -55,96.4 -85.1,142.9 -2.5,-61.8 45.4,-102.8 85.1,-142.9"
         style="fill:#191919;fill-opacity:1;fill-rule:nonzero;stroke:none"
         id="path54" /><path
         d="m 13790.7,18046.9 c -51.1,39.6 -111.3,65.4 -176.3,67.9 37,-64.1 109.7,-67.9 176.3,-67.9"
         style="fill:#191919;fill-opacity:1;fill-rule:nonzero;stroke:none"
         id="path56" /><path
         d="m 11815.5,17964.8 c 21.7,-32.2 46.8,-62.3 76,-88.3 7.3,32.6 17.1,64.6 20,97.9 -12,41.5 -48.3,69.7 -74.3,102.3 -7.5,-37.1 -14.4,-74.5 -21.7,-111.9"
         style="fill:#191919;fill-opacity:1;fill-rule:nonzero;stroke:none"
         id="path58" /><path
         d="m 11728.7,17879.9 c 20.9,66.2 -9.6,127 -58.2,170.6 -17.1,-63.6 8.7,-129.1 58.2,-170.6"
         style="fill:#191919;fill-opacity:1;fill-rule:nonzero;stroke:none"
         id="path60" /><path
         d="m 17078.1,18022.5 c 5.5,-71.9 11.2,-143.7 15.8,-215.5 38,-2.3 75.9,-4.8 114.2,-7.8 -19.6,72.8 -41.9,144.6 -67.3,215.3 -15.7,2 -46.9,5.9 -62.7,8"
         style="fill:#191919;fill-opacity:1;fill-rule:nonzero;stroke:none"
         id="path62" /><path
         d="m 17271,17988.5 c 1.4,-66.8 3,-133.4 4.6,-200.4 45.6,-5.3 91.4,-10.5 137.5,-15.6 -13.2,65.7 -28.3,131.2 -45.4,195.7 -32.4,6.8 -64.5,13.7 -96.7,20.3"
         style="fill:#191919;fill-opacity:1;fill-rule:nonzero;stroke:none"
         id="path64" /><path
         d="m 16878.6,17825 c 27.4,-1.4 55,-3 83,-4.6 -15.5,49.7 -31.9,99 -51.3,147.1 -31,-41.3 -27.6,-93.9 -31.7,-142.5"
         style="fill:#191919;fill-opacity:1;fill-rule:nonzero;stroke:none"
         id="path66" /><path
         d="m 16732.9,17828 c 17.3,0.4 52.2,1.6 69.6,2 -16,39 -35.4,76.4 -59.1,110.6 -4.8,-37.2 -8,-75 -10.5,-112.6"
         style="fill:#191919;fill-opacity:1;fill-rule:nonzero;stroke:none"
         id="path68" /><path
         d="m 17481.7,17942.2 c 0.5,-58.1 -0.6,-116.7 4.4,-175.1 37.4,-17.8 80.2,-18 120.6,-26.7 -14.1,58.1 -11.6,123.4 -43.5,175.1 -27.2,10.3 -54.3,19.2 -81.5,26.7"
         style="fill:#191919;fill-opacity:1;fill-rule:nonzero;stroke:none"
         id="path70" /><path
         d="m 16415.3,17903 c -39.5,-2.3 -36.1,-70 2.9,-71.2 40.8,1.6 34.2,69.4 -2.9,71.2"
         style="fill:#191919;fill-opacity:1;fill-rule:nonzero;stroke:none"
         id="path72" /><path
         d="m 11847.9,17695.5 c 7.8,38.3 15.8,76.4 23.1,114.7 -26.3,19.8 -52.3,39.6 -78.5,59 -19.1,-67.9 2.8,-128.3 55.4,-173.7"
         style="fill:#191919;fill-opacity:1;fill-rule:nonzero;stroke:none"
         id="path74" /><path
         d="m 17709.1,17856.9 c -4.1,-44 -2.5,-88.5 -2.3,-132.7 34.4,-5.9 68.9,-11.4 103.8,-17.5 -15.8,54.2 -16,186.7 -101.5,150.2"
         style="fill:#191919;fill-opacity:1;fill-rule:nonzero;stroke:none"
         id="path76" /><path
         d="m 11692.4,17724.4 c -24.4,28.8 -38.5,71.4 -73.6,88.1 -21,-67.8 25.3,-124.3 60.6,-176.5 4.1,29.6 8.7,59 13,88.4"
         style="fill:#191919;fill-opacity:1;fill-rule:nonzero;stroke:none"
         id="path78" /><path
         d="m 17883.5,17811.1 c 1.6,-39.9 3.2,-80 5,-120.2 38.3,-8.4 76.4,-16.9 115.4,-25.8 -9.8,38.6 -18.9,76.4 -28.5,114.5 -30.8,10.7 -61.3,21 -91.9,31.5"
         style="fill:#191919;fill-opacity:1;fill-rule:nonzero;stroke:none"
         id="path80" /><path
         d="m 18073.2,17742.7 c 2.1,-32.4 4.6,-64.8 7.6,-97.4 29.2,-7.1 59,-14.6 88.7,-21.9 -7.3,58.2 -34.2,107 -96.3,119.3"
         style="fill:#191919;fill-opacity:1;fill-rule:nonzero;stroke:none"
         id="path82" /><path
         d="m 18253.4,17671.8 c 0,-22.6 0.2,-45.4 0.7,-68.2 32.1,-11 64.7,-22.1 97.6,-32.6 -8,54.7 -49.8,83.2 -98.3,100.8"
         style="fill:#191919;fill-opacity:1;fill-rule:nonzero;stroke:none"
         id="path84" /><path
         d="m 11798.9,17468.6 c 8.4,44 16.4,87.8 23.3,131.8 -23.1,18.5 -45.6,36.9 -68.7,55.2 -20.7,-69.8 -9.8,-137.1 45.4,-187"
         style="fill:#191919;fill-opacity:1;fill-rule:nonzero;stroke:none"
         id="path86" /><path
         d="m 11599.1,17643 c 0.5,-61.1 22.8,-117.9 55.2,-168.9 19.2,65.2 -12.5,122.2 -55.2,168.9"
         style="fill:#191919;fill-opacity:1;fill-rule:nonzero;stroke:none"
         id="path88" /><path
         d="m 18461.6,17563.9 c 19.8,-38.5 61.1,-52 99.4,-66.1 -13.5,47 -50.9,72 -99.4,66.1"
         style="fill:#191919;fill-opacity:1;fill-rule:nonzero;stroke:none"
         id="path90" /><path
         d="m 11704.3,17373.3 c 20.7,-26.5 41.2,-53.4 61.3,-80.5 5.7,36.2 11.6,72.5 17.6,108.5 -21.5,19.6 -42.7,38.8 -64.1,57.7 -5,-28.3 -10,-57 -14.8,-85.7"
         style="fill:#191919;fill-opacity:1;fill-rule:nonzero;stroke:none"
         id="path92" /><path
         d="m 11535.1,17415.2 c 12.1,-63.8 41,-122.6 77.7,-176 3,19.2 9.1,57.7 12.1,76.8 -27.1,35.8 -55.4,70.7 -89.8,99.2"
         style="fill:#191919;fill-opacity:1;fill-rule:nonzero;stroke:none"
         id="path94" /><path
         d="m 18827.1,17400.6 c -20.3,-33.5 36.7,-70.2 65.9,-53.8 11.8,32.2 -36.3,70.7 -65.9,53.8"
         style="fill:#191919;fill-opacity:1;fill-rule:nonzero;stroke:none"
         id="path96" /><path
         d="m 11724.1,17062.5 c 5.9,38.7 13,77.5 14.1,116.7 -16.1,25.8 -37.1,47.5 -57,69.8 -20.3,-67.7 -10.7,-137.3 42.9,-186.5"
         style="fill:#191919;fill-opacity:1;fill-rule:nonzero;stroke:none"
         id="path98" /><path
         d="m 11684.2,16855.7 c 6.4,34.9 13,69.5 18.9,104.2 -19.6,20 -39.4,39.9 -59,59.5 -20.8,-60.7 3.2,-115.6 40.1,-163.7"
         style="fill:#191919;fill-opacity:1;fill-rule:nonzero;stroke:none"
         id="path100" /><path
         d="m 8996.69,15785.8 c -23.71,102.6 -42.86,206.6 -75.7,306.7 9.12,-104.7 0,-223.5 75.7,-306.7"
         style="fill:#191919;fill-opacity:1;fill-rule:nonzero;stroke:none"
         id="path102" /><path
         d="m 9170.91,16005.6 c -12.09,3.8 -36.26,11.4 -48.34,15.3 2.05,-65.3 19.61,-128.4 43.32,-189.1 3.65,57.9 10.26,115.9 5.02,173.8"
         style="fill:#191919;fill-opacity:1;fill-rule:nonzero;stroke:none"
         id="path104" /><path
         d="m 9359.71,15871.9 c -10.26,1.7 -30.78,4.6 -41.04,6 7.75,-37 16.19,-74.1 25.76,-111.1 5.25,35.1 10.27,70.3 15.28,105.1"
         style="fill:#191919;fill-opacity:1;fill-rule:nonzero;stroke:none"
         id="path106" /><path
         d="m 9146.96,15744.3 c 15.05,-68.9 21.44,-146 78.67,-195.7 -10.49,70.7 -46.97,133 -78.67,195.7"
         style="fill:#191919;fill-opacity:1;fill-rule:nonzero;stroke:none"
         id="path108" /><path
         d="m 9595.95,15645.5 c -3.42,27.6 20.52,65.5 -3.42,86.7 -15.74,1.8 -46.75,5.2 -62.26,7 -0.68,-45.3 16.42,-85 65.68,-93.7"
         style="fill:#191919;fill-opacity:1;fill-rule:nonzero;stroke:none"
         id="path110" /><path
         d="m 9823.97,15532.4 c 9.81,36.7 -3.65,49.3 -40.36,38.1 -10.26,-36.7 3.19,-49.2 40.36,-38.1"
         style="fill:#191919;fill-opacity:1;fill-rule:nonzero;stroke:none"
         id="path112" /><path
         d="m 9346.03,15546.8 c 8.21,-62.3 28.96,-126.8 93.04,-151.4 -20.75,56.3 -46.98,111.5 -93.04,151.4"
         style="fill:#191919;fill-opacity:1;fill-rule:nonzero;stroke:none"
         id="path114" /><path
         d="m 11192.1,15542.2 c 22.6,-37.8 34.2,-112.4 94.7,-88.2 -27.9,33.3 -58.9,63.8 -94.7,88.2"
         style="fill:#191919;fill-opacity:1;fill-rule:nonzero;stroke:none"
         id="path116" /><path
         d="m 9208.53,15511.9 c 33.98,-104.9 39.91,-258.6 168.74,-291 -54.04,98.1 -73.42,221.7 -168.74,291"
         style="fill:#191919;fill-opacity:1;fill-rule:nonzero;stroke:none"
         id="path118" /><path
         d="m 11026.8,15454.4 c 30.3,-43.1 43.3,-158 117.2,-124.2 -33.1,46.7 -69.1,92.3 -117.2,124.2"
         style="fill:#191919;fill-opacity:1;fill-rule:nonzero;stroke:none"
         id="path120" /><path
         d="m 9595.72,15405.6 c 17.56,-80.4 50.85,-167.3 139.55,-189.2 -37.62,68.9 -72.97,143.4 -139.55,189.2"
         style="fill:#191919;fill-opacity:1;fill-rule:nonzero;stroke:none"
         id="path122" /><path
         d="m 9400.3,15357.8 c 21.43,-58.4 39.91,-118.4 70.46,-173.1 38.54,-26.5 83.69,-41.3 126.78,-59.8 -55.64,85.8 -99.87,186.6 -197.24,232.9"
         style="fill:#191919;fill-opacity:1;fill-rule:nonzero;stroke:none"
         id="path124" /><path
         d="m 9836.06,15307.4 c 17.33,-45.9 32.83,-92.8 58.14,-135 27.37,-11.7 56.55,-18 85.29,-26.2 -40.82,59.2 -71.15,134.3 -143.43,161.2"
         style="fill:#191919;fill-opacity:1;fill-rule:nonzero;stroke:none"
         id="path126" /><path
         d="m 10319.9,15227.8 c 14.6,28.5 -24.8,69.8 -52.9,53.3 -15.9,-27.3 25.1,-71.6 52.9,-53.3"
         style="fill:#191919;fill-opacity:1;fill-rule:nonzero;stroke:none"
         id="path128" /><path
         d="m 10690.7,15297.6 c 6.4,-12.6 19.4,-37.4 25.8,-49.7 4.5,-37.9 62.7,-139.1 85.5,-62.5 -31.3,42.8 -71.9,77.3 -111.3,112.2"
         style="fill:#191919;fill-opacity:1;fill-rule:nonzero;stroke:none"
         id="path130" /><path
         d="m 10263.6,15095.3 c -36,51.1 -65.4,123.4 -137.3,127.5 30.1,-58.2 56.4,-136.2 137.3,-127.5"
         style="fill:#191919;fill-opacity:1;fill-rule:nonzero;stroke:none"
         id="path132" /><path
         d="m 9691.26,15187.2 c 18.93,-38.5 38.08,-76.8 57.01,-115.6 46.29,-13.2 92.8,-25.3 139.78,-36.7 -49.48,69.5 -109.91,133.6 -196.79,152.3"
         style="fill:#191919;fill-opacity:1;fill-rule:nonzero;stroke:none"
         id="path134" /><path
         d="m 10324,15196.5 c 16.7,-35.1 35.1,-69.3 54.3,-103.5 15.5,0.9 46.7,2.8 62.3,3.7 -29,43.7 -64.6,84.3 -116.6,99.8"
         style="fill:#191919;fill-opacity:1;fill-rule:nonzero;stroke:none"
         id="path136" /><path
         d="m 10519.9,15201.6 c 13.9,-30.6 28.7,-61.4 43.3,-92.2 12.8,2.8 38.6,8.3 51.3,11 15.3,48.5 -54.2,80.9 -94.6,81.2"
         style="fill:#191919;fill-opacity:1;fill-rule:nonzero;stroke:none"
         id="path138" /><path
         d="m 9925.44,15110.8 c 19.38,-32.1 37.4,-66.1 62.48,-94.6 42.18,-17.6 88.48,-18.7 133.38,-26.2 -48.6,64.5 -110.3,119.4 -195.86,120.8"
         style="fill:#191919;fill-opacity:1;fill-rule:nonzero;stroke:none"
         id="path140" /><path
         d="m 10217.5,15054.5 c 14.2,-24.2 27.9,-48.4 42,-73 23.5,-1.6 70,-4.5 93.3,-6.1 -17.8,26 -35.6,51.7 -53.6,77 -27.4,1 -54.5,1.6 -81.7,2.1"
         style="fill:#191919;fill-opacity:1;fill-rule:nonzero;stroke:none"
         id="path142" /><path
         d="m 10402.2,15052.4 c 13.3,-23.5 26.3,-46.7 39.9,-70.7 36.1,2.6 72.6,4.8 108.8,6.9 -22.6,23 -44.9,45.6 -67.5,68.4 -27.1,-1.4 -54.2,-3 -81.2,-4.6"
         style="fill:#191919;fill-opacity:1;fill-rule:nonzero;stroke:none"
         id="path144" /><path
         d="m 5450.9,10660 c -107.62,37.4 -220.95,59.5 -334.74,63.1 191.32,-119.7 416.15,-161.6 629.81,-223.9 -97.6,55 -192,117 -295.07,160.8"
         style="fill:#191919;fill-opacity:1;fill-rule:nonzero;stroke:none"
         id="path146" /><path
         d="m 7069.88,10139.2 c -253.33,84.8 -508.04,165.7 -765.93,234.2 -113.33,46.7 -232.82,76.1 -354.81,88.2 189.03,-63.2 366.21,-157.3 561.4,-201.6 176.26,-79.3 369.63,-98.3 559.34,-120.8"
         style="fill:#191919;fill-opacity:1;fill-rule:nonzero;stroke:none"
         id="path148" /><path
         d="m 7083.11,10052.5 c 62.48,-36.2 137.04,-40.6 204.77,-63.1 99.19,-31.3 197.69,-67.1 301.67,-80.8 -154.83,86.5 -331.32,128 -506.44,143.9"
         style="fill:#191919;fill-opacity:1;fill-rule:nonzero;stroke:none"
         id="path150" /><path
         d="m 10075.9,9498.4 c 119.3,-51.5 233.1,-123.3 365.6,-134.1 -81.4,47.7 -169.9,83 -247.9,136.6 -58.1,39.3 -120.6,73.9 -190.9,83.9 18.1,-33.2 35.4,-71.6 73.2,-86.4"
         style="fill:#191919;fill-opacity:1;fill-rule:nonzero;stroke:none"
         id="path152" /><path
         d="m 10947.9,9244.4 c -97.4,77.1 -205.7,143.4 -327.2,173.3 79.8,-101 205.2,-147.5 327.2,-173.3"
         style="fill:#191919;fill-opacity:1;fill-rule:nonzero;stroke:none"
         id="path154" /><path
         d="m 11030.9,9197.4 c 65,-56.8 145.5,-89.6 229.4,-108.3 -73.2,42.9 -148.4,83 -229.4,108.3"
         style="fill:#191919;fill-opacity:1;fill-rule:nonzero;stroke:none"
         id="path156" /><path
         d="m 12774.4,7994.4 c 124.9,-84.6 214.8,-211.4 340.2,-295.8 83.7,-50.8 180.1,-75.7 274.8,-99.2 -104.9,89.4 -192,200.2 -312,270.7 -132.7,83 -268.8,164.9 -418.6,212.5 36.5,-31.7 75.7,-60.4 115.6,-88.2"
         style="fill:#191919;fill-opacity:1;fill-rule:nonzero;stroke:none"
         id="path158" /><path
         d="m 13734.8,7339.9 c -92.8,73.2 -178.7,156.5 -282.5,214.2 106.5,-208.9 304,-348.9 463.6,-514.7 211.6,-213.2 427.1,-424.6 609.7,-663.8 97.4,-117 173.1,-249.4 264.1,-371 93.9,-118.8 200.6,-226.6 301,-340.2 -76.2,152.1 -145.1,308.3 -231,455.1 -277.8,485.3 -688.7,877.9 -1124.9,1220.4"
         style="fill:#191919;fill-opacity:1;fill-rule:nonzero;stroke:none"
         id="path160" /><path
         d="m 14973.5,6072.3 c -34.5,164.4 -109.9,315.9 -213.5,447.2 -85.7,101 -115.6,239 -213.6,330.2 -73.9,69.3 -159.6,125.9 -252.9,165.3 53.4,-122.9 152.8,-213.9 249.5,-302.6 157.1,-203.4 313.7,-409.8 430.5,-640.1"
         style="fill:#191919;fill-opacity:1;fill-rule:nonzero;stroke:none"
         id="path162" /><path
         d="m 15457.1,5591.9 c -61.8,201.6 -171.5,383.3 -291.4,555 40.8,-210.5 179.7,-378.7 291.4,-555"
         style="fill:#191919;fill-opacity:1;fill-rule:nonzero;stroke:none"
         id="path164" /><path
         d="m 16241.7,4035.9 c -90.9,150.7 -151.8,316.5 -231.2,472.9 -74.3,146.4 -105.8,310.1 -182.9,455.1 -85,163.1 -180.3,321.1 -278.6,476.1 38.1,-282.5 257,-500.5 314.7,-778 -127.5,222.3 -216.4,466.1 -366.2,675.6 -105.8,149.2 -182.7,316.1 -289.9,464.3 71.4,-236 196.2,-449.2 315,-663.1 128.1,-301.2 254.4,-603.3 371.4,-909.4 57.5,-155.7 164.2,-289.1 206.6,-451.2 51.1,-182.4 162.1,-338.4 240.8,-508.5 -10.7,99.9 -24.4,201.8 -68.4,293.2 -80.7,147.8 -118.8,313.6 -146.4,478.2 75,-113.3 110.1,-245.4 168.5,-366.9 51.3,-114.7 164.6,-179.2 251.5,-264.1 -31.5,113.8 -34.7,240.2 -105.8,338.9 -67.9,94.6 -144.8,183.3 -199.1,286.9"
         style="fill:#191919;fill-opacity:1;fill-rule:nonzero;stroke:none"
         id="path166" /><path
         d="m 15529.4,4895.7 c -78.2,133 -143.7,277.1 -249.9,390.2 11.4,-117.4 54,-228.5 93,-339.1 82.6,-219.6 160.5,-441 234.6,-663.5 46.1,-159.9 123.4,-307.2 203.9,-451.8 92.1,-189.9 212.5,-363.7 327.2,-540.4 -41,131.6 -91.4,259.7 -134.7,390.2 -153.5,406.5 -260.2,833.2 -474.1,1214.4"
         style="fill:#191919;fill-opacity:1;fill-rule:nonzero;stroke:none"
         id="path168" /><path
         d="m 11100.9,19682.7 c -19.8,-34.9 37.2,-76.4 68.9,-58.8 18.7,35.1 -37.4,78 -68.9,58.8"
         style="fill:#191919;fill-opacity:1;fill-rule:nonzero;stroke:none"
         id="path170" /><path
         d="m 11733.7,19461.3 c -6.6,29.6 -24.4,35.6 -53.1,17.8 6.1,-29.4 23.9,-35.4 53.1,-17.8"
         style="fill:#191919;fill-opacity:1;fill-rule:nonzero;stroke:none"
         id="path172" /><path
         d="m 11824.9,19376.3 c 26.2,36 -39,62 -60,33 -26.2,-35.8 39,-63.4 60,-33"
         style="fill:#191919;fill-opacity:1;fill-rule:nonzero;stroke:none"
         id="path174" /><path
         d="m 11832.2,18371.8 c 41.5,-16.2 42.6,71.8 0.9,55.2 8.7,39.9 -26.4,67 -46.7,94.8 3.8,-69.7 14.3,-139.3 35.3,-206.3 2.7,14.1 7.8,42.2 10.5,56.3"
         style="fill:#191919;fill-opacity:1;fill-rule:nonzero;stroke:none"
         id="path176" /><path
         d="m 13055.8,18322.1 c 21.9,-83 74.1,-158.3 161.4,-179.7 -25.3,79.8 -82.1,148.9 -161.4,179.7"
         style="fill:#191919;fill-opacity:1;fill-rule:nonzero;stroke:none"
         id="path178" /><path
         d="m 13562.9,18243.2 c -16.6,-24.2 15.7,-66.1 43.3,-55 15.3,24 -16.6,65.2 -43.3,55"
         style="fill:#191919;fill-opacity:1;fill-rule:nonzero;stroke:none"
         id="path180" /><path
         d="m 17109.2,18068.3 c 8.8,32.6 -2.1,45.4 -32.7,38.1 -9.5,-32.6 1.2,-45.2 32.7,-38.1"
         style="fill:#191919;fill-opacity:1;fill-rule:nonzero;stroke:none"
         id="path182" /><path
         d="m 18680.2,17471.6 c -14.5,-27.2 29.7,-57.7 52.3,-39.5 13.6,27.1 -30.1,58.2 -52.3,39.5"
         style="fill:#191919;fill-opacity:1;fill-rule:nonzero;stroke:none"
         id="path184" /><path
         d="m 19016.6,17293 c -13.2,-27.1 30.8,-57.4 53.6,-39.9 11.8,27.1 -31.3,58.4 -53.6,39.9"
         style="fill:#191919;fill-opacity:1;fill-rule:nonzero;stroke:none"
         id="path186" /><path
         d="m 10153.7,15417 c -2.3,38.4 -24.6,112.2 -75.3,73.5 -27.5,-53.6 36.8,-67.3 75.3,-73.5"
         style="fill:#191919;fill-opacity:1;fill-rule:nonzero;stroke:none"
         id="path188" /><path
         d="m 10530.9,15223.7 c 13.9,32.1 -29.9,78 -61.4,76.1 -8.2,-32.6 23.5,-85.9 61.4,-76.1"
         style="fill:#191919;fill-opacity:1;fill-rule:nonzero;stroke:none"
         id="path190" /><path
         d="m 10733.6,19855.3 c 15.7,29 -26.5,72.5 -55,55.9 -11.8,-27.8 26.2,-70 55,-55.9"
         style="fill:#191919;fill-opacity:1;fill-rule:nonzero;stroke:none"
         id="path192" /><path
         d="m 11243.7,19612.7 c -16.9,-22.1 10.7,-68.2 38.5,-54.3 17.1,22.4 -11,68.5 -38.5,54.3"
         style="fill:#191919;fill-opacity:1;fill-rule:nonzero;stroke:none"
         id="path194" /><path
         d="m 11812.6,19543.9 c -27.2,-35.2 38.3,-61.8 61.1,-35.6 26.9,35.3 -38.8,62.5 -61.1,35.6"
         style="fill:#191919;fill-opacity:1;fill-rule:nonzero;stroke:none"
         id="path196" /><path
         d="m 11675.1,18404.4 c -17.1,-22.3 -16.2,-71.1 15.7,-79.8 39.7,9.1 25.3,98 -15.7,79.8"
         style="fill:#191919;fill-opacity:1;fill-rule:nonzero;stroke:none"
         id="path198" /><path
         d="m 13890.3,18154 c -11.1,-35.8 2.1,-48.8 40,-38.7 10.9,36.2 -2.3,49.2 -40,38.7"
         style="fill:#191919;fill-opacity:1;fill-rule:nonzero;stroke:none"
         id="path200" /><path
         d="m 11609.4,18132.8 c -12.3,-37.6 -0.2,-50.8 36.3,-39.6 12.3,37.8 0,51 -36.3,39.6"
         style="fill:#191919;fill-opacity:1;fill-rule:nonzero;stroke:none"
         id="path202" /><path
         d="m 13959.4,18040.5 c -0.9,-32.4 55.9,-29.9 73.7,-12.1 0,32.1 -56.3,30.1 -73.7,12.1"
         style="fill:#191919;fill-opacity:1;fill-rule:nonzero;stroke:none"
         id="path204" /><path
         d="m 9359.03,15560.5 c 13.45,25.1 -2.74,78.4 -33.75,79.1 -18.47,-24.6 -2.28,-85.3 33.75,-79.1"
         style="fill:#191919;fill-opacity:1;fill-rule:nonzero;stroke:none"
         id="path206" /><path
         d="m 9575.2,15465.2 c -10.04,-31.7 0.91,-45 32.38,-39 9.57,32.1 -1.14,45.1 -32.38,39"
         style="fill:#191919;fill-opacity:1;fill-rule:nonzero;stroke:none"
         id="path208" /><path
         d="m 10435.8,15425.3 c 11.8,37.1 -0.7,49.9 -37.7,38 -12.3,-36.7 0.3,-49.4 37.7,-38"
         style="fill:#191919;fill-opacity:1;fill-rule:nonzero;stroke:none"
         id="path210" /><path
         d="m 9805.04,15395.6 c -16.41,-22.8 11.41,-68.2 39.46,-56.1 15.95,23.1 -11.86,68.7 -39.46,56.1"
         style="fill:#191919;fill-opacity:1;fill-rule:nonzero;stroke:none"
         id="path212" /><path
         d="m 10078.7,15319.7 c -17.1,-28.1 25.1,-72.3 53.6,-53.4 14.1,27.6 -26.3,68.7 -53.6,53.4"
         style="fill:#191919;fill-opacity:1;fill-rule:nonzero;stroke:none"
         id="path214" /><path
         d="m 10926.2,15260.2 c -11.1,-36.3 1.9,-49.5 39.3,-39.7 11.1,36.7 -2.1,49.9 -39.3,39.7"
         style="fill:#191919;fill-opacity:1;fill-rule:nonzero;stroke:none"
         id="path216" /></g></g></svg>
